<?xml version="1.0" standalone="no"?>
<!DOCTYPE svg PUBLIC "-//W3C//DTD SVG 1.1//EN" "http://www.w3.org/Graphics/SVG/1.1/DTD/svg11.dtd" >
<svg xmlns="http://www.w3.org/2000/svg">
<metadata></metadata>
<defs>
<font id="catshopregular" horiz-adv-x="724" >
<font-face units-per-em="2048" ascent="1638" descent="-410" />
<missing-glyph horiz-adv-x="497" />
<glyph horiz-adv-x="2048" />
<glyph horiz-adv-x="2048" />
<glyph unicode="&#xd;" horiz-adv-x="2048" />
<glyph unicode=" "  horiz-adv-x="497" />
<glyph unicode="&#x09;" horiz-adv-x="497" />
<glyph unicode="&#xa0;" horiz-adv-x="497" />
<glyph unicode="!" horiz-adv-x="430" d="M35 219q0 45 13 86t37 71t54.5 47t67.5 17t67.5 -17t54 -47t37 -71t13.5 -86q0 -47 -13.5 -87t-37 -69.5t-54 -47t-67.5 -17.5t-67.5 17.5t-54.5 47t-37 69.5t-13 87zM39 1638h338l-113 -997h-123z" />
<glyph unicode="&#x22;" horiz-adv-x="901" d="M43 1464q0 78 44 127t112 49q39 0 75.5 -20.5t65.5 -54t46 -78.5t17 -94q0 -53 -19 -103.5t-52 -94.5t-75 -79t-85 -55l-61 31q37 16 61.5 47.5t24.5 77.5q0 68 -93 131q-61 39 -61 116zM483 1464q0 78 44 127t112 49q39 0 76 -20.5t65.5 -54t46 -78.5t17.5 -94 q0 -53 -19.5 -103.5t-52.5 -94.5t-75 -79t-85 -55l-61 31q37 16 61.5 47.5t24.5 77.5q0 68 -92 131q-61 39 -62 116z" />
<glyph unicode="#" d="M61 487v121h103l26 121h-129v121h158l27 119h121l-27 -119h121l26 119h121l-26 -119h80v-121h-109l-27 -121h136v-121h-162l-27 -118h-121l27 118h-121l-27 -118h-120l26 118h-76zM285 608h121l26 121h-121z" />
<glyph unicode="$" horiz-adv-x="1363" d="M135 168l166 311h78q23 -61 42 -101t46 -64.5t62.5 -37t88.5 -18.5v475q-6 0 -14 4q-53 10 -102 30.5t-101 33.5q-41 14 -77.5 33.5t-64.5 48t-44 66.5t-16 91q0 72 41 136.5t102 114.5t135 82t141 38v211h93v-211q53 -4 89 -18.5t65.5 -29.5t55 -27.5t56.5 -12.5 q49 0 100 90h105l-164 -309h-78q-23 57 -45.5 97t-49 64.5t-59 38t-75.5 19.5v-377l28 -4q43 -10 90.5 -23.5t93.5 -32t88 -46t76 -64.5q20 -27 34 -57.5t21 -61t9 -60.5t2 -54q0 -70 -40 -134.5t-103.5 -114.5t-142.5 -83t-156 -41v-141h-93v139q-61 2 -100 17.5 t-66.5 31.5t-53 29.5t-58.5 13.5q-47 0 -98 -92h-107zM395 1137q0 -20 7.5 -42t17.5 -42l-2 2q25 -33 59.5 -42t73.5 -20q16 -6 32.5 -12t34.5 -10v352q-137 -12 -192 -94q-31 -43 -31 -92zM711 258q66 10 114 40t68 67q10 18 20.5 56t10.5 58q0 29 -6.5 58.5t-22.5 56.5 l2 -2q-33 47 -83 72.5t-103 42.5v-449z" />
<glyph unicode="%" horiz-adv-x="2129" d="M51 1159q0 104 38 196.5t102.5 163t150.5 111.5t184 41t184.5 -41t152 -111.5t103.5 -163.5t38 -196q0 -104 -38 -196.5t-102.5 -163t-151.5 -111.5t-186 -41q-98 0 -185 41t-151.5 110.5t-101.5 163t-37 197.5zM188 -8l1508 1657h219l-1507 -1657h-220zM348 1335 q0 -113 22.5 -225.5t57.5 -203.5t80 -147.5t90 -56.5t76 76t31 201q0 106 -21.5 216t-55.5 200t-76 149.5t-83 67.5h-12q-47 0 -78 -76t-31 -201zM1130 530q0 104 38 196.5t102.5 163.5t151 111.5t184.5 40.5t184 -40.5t151.5 -111.5t103.5 -164t38 -196q0 -104 -38 -196 t-102.5 -163t-151.5 -112t-185 -41t-185.5 41t-152 111t-101.5 163t-37 197zM1427 707q0 -113 23 -225.5t57.5 -204t79.5 -147.5t90 -56t76 75.5t31 200.5q0 106 -21.5 216t-55.5 200t-76 149.5t-83 67.5h-12q-47 0 -78 -76t-31 -200z" />
<glyph unicode="&#x26;" horiz-adv-x="1046" d="M6 336q0 137 77 216t196 107q-90 113 -91 195q0 86 68 129t172 43q135 0 207 -44t72 -132q0 -47 -22.5 -78t-56.5 -52.5t-71 -35t-68 -25.5l156 -190l62 149h178l-158 -241l270 -359h-258l-114 164q-23 -37 -46.5 -69.5t-56.5 -57t-77 -39t-109 -14.5q-59 0 -118.5 26.5 t-107 72.5t-76 106.5t-28.5 128.5zM236 340q0 -74 19 -127t46 -89t56.5 -53.5t52.5 -17.5q47 0 77.5 51.5t73.5 167.5l-225 326q-18 -4 -36.5 -18.5t-33 -44t-22.5 -77.5t-8 -118zM360 907q0 -31 9.5 -62.5t24 -57t27.5 -45t23 -25.5q47 16 66.5 52t19.5 91q0 113 -86 113 q-84 0 -84 -66z" />
<glyph unicode="'" horiz-adv-x="483" d="M43 1464q0 78 44 127t112 49q39 0 75.5 -20.5t65.5 -54t46 -78.5t17 -94q0 -53 -19 -103.5t-52 -94.5t-75 -79t-85 -55l-61 31q37 16 61.5 47.5t24.5 77.5q0 68 -93 131q-61 39 -61 116z" />
<glyph unicode="(" horiz-adv-x="712" d="M111 113q0 41 3 84t7 90l16 143q0 233 -2 397t-5 278t-6 185.5t-6 119.5t-5 81t-2 70q0 49 8 104t30.5 101t63.5 77t106 31q31 0 63 -12.5t65.5 -45t67.5 -91t67 -148.5l-39 -23q-10 25 -24.5 52.5t-31 50t-33 37t-32.5 14.5q-39 0 -60.5 -37t-21.5 -100q0 -76 5 -147.5 t12.5 -155.5t12.5 -187.5t5 -244.5q0 -129 -1 -231.5t-7 -180.5q-8 -90 -17.5 -172t-9.5 -154q0 -61 22.5 -97t59.5 -36q16 0 32.5 14.5t33 37t30.5 50t25 52.5l39 -23q-33 -90 -67 -148.5t-67.5 -91t-65.5 -45t-63 -12.5q-25 0 -45 7.5t-38 17.5q-80 43 -102.5 111.5 t-22.5 177.5z" />
<glyph unicode=")" horiz-adv-x="712" d="M104 96l39 23q10 -25 23.5 -52.5t29 -50t33 -37t33.5 -14.5q39 0 60.5 36t21.5 97q0 76 -5 148.5t-11 156.5t-11.5 188.5t-5.5 244.5q0 129 1 232t7 181q6 88 15.5 169t9.5 153q0 63 -21.5 100t-60.5 37q-16 0 -33.5 -14.5t-33 -37t-28.5 -50t-24 -52.5l-39 23 q33 90 67 148.5t67.5 91t65.5 45t63 12.5q25 0 45 -7t39 -18q78 -43 101 -111.5t23 -176.5q0 -43 -3 -86t-7 -89l-16 -143q0 -233 2 -398t5 -278.5t6 -185.5t6 -119t5 -81t2 -68q0 -49 -8 -103.5t-30.5 -101.5t-63.5 -78t-106 -31q-31 0 -63 12.5t-65.5 45t-67.5 91 t-67 148.5z" />
<glyph unicode="*" horiz-adv-x="735" d="M25 1122q0 39 21.5 70t54 53.5t72.5 34.5t79 12q41 0 82 -10q-10 18 -34 32.5t-50 14.5q-18 0 -41 -8t-43 -8t-41 11t-38 27.5t-27.5 37t-10.5 36.5q0 31 26.5 51.5t67.5 20.5q45 0 84 -17.5t69 -47t50.5 -66.5t30.5 -74q10 25 10 54q0 23 -12.5 39t-26.5 33.5t-26.5 37 t-12.5 47.5q0 53 22.5 85t57.5 32q39 0 73 -48t34 -116q0 -57 -29 -111.5t-64 -84.5q43 0 61.5 28.5t36 64.5t43 64.5t85.5 28.5q35 0 54 -20.5t19 -49.5q0 -31 -16 -59.5t-42 -51t-58.5 -37t-63.5 -18.5q-10 -2 -22.5 -3t-22.5 -1q-45 0 -82 13q10 -18 32 -31.5t46 -13.5 q18 0 40 7t42 7t41.5 -10.5t40 -26.5t30 -34.5t11.5 -37.5q0 -35 -25.5 -54t-68.5 -19q-45 0 -84 18t-69 48t-50.5 66t-28.5 72q-12 -23 -12 -53q0 -20 12.5 -36.5t27.5 -34t27.5 -37t12.5 -45.5q0 -53 -22.5 -86t-57.5 -33q-18 0 -37.5 13t-35 34.5t-25 51.5t-9.5 63 q0 55 27 108t59 82q-43 0 -59 -28.5t-31.5 -62.5t-41 -62.5t-87.5 -28.5q-35 0 -55 19.5t-20 47.5z" />
<glyph unicode="+" d="M61 729v121h238v240h121v-240h242v-121h-242v-240h-121v240h-238z" />
<glyph unicode="," horiz-adv-x="475" d="M47 219q0 78 44 127t112 49q39 0 75.5 -20.5t65.5 -54t46.5 -78.5t17.5 -95q0 -53 -19.5 -103t-52.5 -94t-75 -79t-85 -55l-61 30q37 16 61.5 49t24.5 78q0 66 -92 129q-61 39 -62 117z" />
<glyph unicode="-" d="M61 729v121h601v-121h-601z" />
<glyph unicode="." horiz-adv-x="430" d="M35 219q0 45 13 86t37 71t54.5 47t67.5 17t67.5 -17t54 -47t37 -71t13.5 -86q0 -47 -13.5 -87t-37 -69.5t-54 -47t-67.5 -17.5t-67.5 17.5t-54.5 47t-37 69.5t-13 87z" />
<glyph unicode="/" horiz-adv-x="1333" d="M8 -59l1110 1685h123l-1110 -1685h-123z" />
<glyph unicode="0" horiz-adv-x="1155" d="M0 803q0 160 43 302t118 249.5t175 170t215 62.5q113 0 213 -63.5t175 -171t118 -249.5t43 -300q0 -160 -43 -302.5t-118 -250t-175 -170t-213 -62.5q-115 0 -215 62.5t-175 169t-118 250t-43 303.5zM279 920q0 -168 28.5 -318.5t74.5 -263.5t104.5 -179.5t117.5 -66.5 q43 4 85 53.5t74 130t52.5 190t20.5 232.5q0 160 -30 305.5t-78 257t-105.5 177t-112.5 65.5h-8q-43 -4 -83 -50t-72 -124t-50 -182.5t-18 -226.5z" />
<glyph unicode="1" horiz-adv-x="710" d="M0 1055v63l442 469h93v-1403q0 -16 15 -31.5t37.5 -27.5t47 -19.5t43.5 -7.5v-63h-543v63q14 0 38 7.5t45.5 19.5t36.5 27.5t15 31.5v926q0 88 -45 88q-18 0 -48 -16.5t-61.5 -40t-63.5 -48t-52 -38.5z" />
<glyph unicode="2" horiz-adv-x="1110" d="M0 1214q0 33 16 72h-2q70 135 199 218t295 83q113 0 213 -43t175 -117.5t118 -174t43 -212.5q0 -307 -185 -389q-74 -35 -150.5 -58.5t-154.5 -45t-155.5 -43t-153.5 -47.5q-115 -41 -129 -131q76 88 195 88q76 0 152.5 -14.5t148 -32t136 -31.5t113.5 -14q86 0 87 118 l65 6q4 -45 7 -82.5t3 -70.5q0 -145 -42 -201.5t-109 -56.5q-66 0 -147 37t-166 81t-166.5 80.5t-145.5 36.5q-63 0 -103 -47t-46 -170h-2q0 -16 2 -18h-72q-4 12 -4 45q0 98 6 167.5t21.5 117t42 77t69.5 47.5q59 25 123.5 44.5t129.5 41t126 49t117 68.5q55 41 86.5 131 t31.5 226q0 57 -22.5 126.5t-63.5 159.5q-43 92 -102 140.5t-137 48.5q-35 0 -68 -10.5t-59.5 -25.5t-43 -34.5t-16.5 -40.5q0 -25 17 -47q53 -78 53 -152q0 -72 -50 -123t-124 -51q-72 0 -122 51.5t-50 122.5z" />
<glyph unicode="3" horiz-adv-x="1161" d="M0 1200l367 490l51 -39q-12 -10 -12 -25q0 -23 25.5 -43t74.5 -20l563 6v-180l-432 -267h16q84 0 165 -29.5t145.5 -96t104.5 -174t40 -265.5q0 -113 -44 -211t-120 -171t-175 -115t-212 -42q-162 0 -293 81t-198 216q-16 37 -17 72q0 72 51.5 122t122.5 50q72 0 122 -50 t50 -122q0 -37 -9 -58.5t-20.5 -38t-20.5 -31.5t-9 -40q0 -53 47 -95t119 -42q31 0 55.5 1t50 13.5t54 40t69.5 80.5q106 139 107 342q0 131 -17.5 221t-52.5 145.5t-87 80t-122 24.5q-129 0 -258 -98l-45 47q51 41 123 76l473 286l-471 -4q-41 0 -86 -15t-90 -40t-86 -56.5 t-70 -64.5z" />
<glyph unicode="4" horiz-adv-x="1093" d="M0 455l526 1114h226v-854h141q14 0 29.5 15t28 36.5t20.5 45.5t8 42h61v-535h-61q0 12 -8 36t-20.5 45.5t-28 38t-29.5 16.5h-141v-275q0 -16 15 -31.5t37.5 -26.5t46 -18.5t42.5 -7.5v-61h-541v61q12 0 36 7.5t45.5 19.5t37.5 26.5t16 30.5v275h-487zM207 715h280v594z " />
<glyph unicode="5" horiz-adv-x="1110" d="M0 403q0 35 13.5 66t37 54.5t54 37.5t67.5 14q74 0 124 -51t50 -121q0 -37 -9 -59t-21.5 -38.5t-21.5 -32t-9 -37.5q0 -25 12 -50.5t33.5 -45t50.5 -32t63 -12.5q10 0 19.5 1t19.5 1q8 0 16.5 -1t18.5 -1q61 0 170 92q102 86 103 324q0 147 -33 240.5t-85 144.5 t-120 69.5t-135 18.5q-61 0 -124 -14.5t-118 -33.5t-97 -38.5t-59 -30.5q-2 2 -2 33q0 39 1 102.5t2.5 135t4.5 145.5t5 135.5t4 102.5t4 47h72v-7.5t-2 -15.5h2q6 -82 71.5 -123t169.5 -41q68 0 138.5 29t140 62.5t134 62.5t122.5 29q66 0 107.5 -54.5t41.5 -197.5 q0 -33 -3 -71t-7 -81l-65 6q0 115 -89 115q-49 0 -114.5 -14.5t-139 -30.5t-151.5 -30.5t-154 -14.5q-135 0 -211 129q-2 -53 -3 -110.5t-2 -106.5t-2 -81t-1 -34q18 6 64.5 19.5t108 28t130 24.5t133.5 10q96 0 190.5 -20.5t169.5 -74.5t121 -151.5t46 -251.5 q0 -111 -44 -209t-119 -170.5t-174 -115.5t-212 -43q-166 0 -295 81t-199 216h2q-16 37 -16 71z" />
<glyph unicode="6" horiz-adv-x="1169" d="M0 698q0 94 22.5 196.5t64.5 201t101.5 188.5t133 157.5t159.5 107.5t181 40q41 0 98 -10v-68q-12 2 -23.5 2h-23.5q-96 0 -166 -45t-120 -119.5t-82 -171t-50 -196.5q78 53 161 79.5t167 26.5q96 0 185 -34.5t156.5 -101t108.5 -165t41 -225.5q0 -133 -43 -233.5 t-118.5 -170t-176 -104.5t-213.5 -35q-115 0 -203 30t-153.5 94.5t-112.5 168t-80 250.5q-14 59 -14 137zM272 711q0 -125 17.5 -240t54.5 -203t92.5 -140t130.5 -52q51 0 101.5 39t89.5 105.5t63.5 154.5t24.5 184q0 215 -65.5 328.5t-194.5 113.5q-131 0 -305 -133 q-4 -41 -6.5 -79.5t-2.5 -77.5z" />
<glyph unicode="7" horiz-adv-x="1050" d="M0 1311q0 143 41 199.5t109 56.5q63 0 145 -37t167 -81t166 -81t146 -37q63 0 103.5 47t48.5 168h2q-2 10 -2 23h71q0 -6 1 -15.5t1 -23.5q0 -100 -4 -172t-15 -128t-28.5 -104.5t-44.5 -99.5q-55 -104 -118.5 -205.5t-120 -217.5t-95 -254t-43.5 -314h-268q4 119 32 218 t70 184t95 159t108 141q57 70 113.5 134.5t105 131t84 138t52.5 155.5q-78 -109 -209 -108q-74 0 -151 14.5t-149.5 31.5t-138 31.5t-114.5 14.5q-84 0 -84 -117l-66 -6q-4 45 -7 83t-3 71z" />
<glyph unicode="8" horiz-adv-x="1157" d="M0 481q0 68 22.5 131.5t64.5 117.5t99.5 97t126.5 72q-94 57 -153.5 135t-59.5 205q0 72 36 135.5t97.5 110.5t143.5 74.5t174 27.5q90 0 171 -27.5t142.5 -74.5t98 -110.5t36.5 -135.5q0 -92 -54 -169t-146 -124q61 -23 115.5 -57.5t95.5 -87.5t65.5 -131t24.5 -189 q-2 -96 -46 -181t-118 -147.5t-173 -98.5t-212 -36t-213 36t-175 98.5t-119 146.5t-44 182zM225 621q0 -84 36 -179.5t94.5 -175.5t131 -132t148.5 -52q37 0 78 20.5t74.5 60.5t55 98t21.5 134q0 95 -51 183q-27 45 -74 82.5t-105.5 69.5t-121.5 62.5t-121 61.5 q-90 -35 -128 -91t-38 -142zM299 1317q0 -92 50 -165t145 -105q51 -16 103 -33t105 -33q59 23 83 61.5t24 100.5q0 61 -28.5 128.5t-76 123t-108.5 92.5t-129 37q-168 0 -168 -207z" />
<glyph unicode="9" horiz-adv-x="1189" d="M0 1040q0 135 44 237.5t120 171.5t176 103.5t211 34.5q113 0 200 -29.5t152.5 -95t113.5 -169t83 -253.5q14 -63 14 -141q0 -94 -22.5 -197.5t-64.5 -203t-102.5 -188.5t-133 -156.5t-158.5 -107.5t-180 -40q-41 0 -99 10v68q12 -2 23.5 -2h23.5q96 0 167 47t122 124 t83 175t50 201q-78 -57 -164 -85t-172 -28q-96 0 -184 34t-155.5 100.5t-107.5 164.5t-40 225zM268 1042q0 -215 64.5 -326.5t193.5 -111.5q130 0 314 137q6 74 6 144q0 123 -18.5 239.5t-55.5 206.5t-93 144.5t-132 54.5q-51 0 -101.5 -40t-89.5 -106.5t-63.5 -154.5 t-24.5 -187z" />
<glyph unicode=":" horiz-adv-x="430" d="M35 219q0 45 13 86t37 71t54.5 47t67.5 17t67.5 -17t54 -47t37 -71t13.5 -86q0 -47 -13.5 -87t-37 -69.5t-54 -47t-67.5 -17.5t-67.5 17.5t-54.5 47t-37 69.5t-13 87zM35 840q0 45 13 86t37 70.5t54.5 47t67.5 17.5t67.5 -17.5t54 -47t37 -70.5t13.5 -86q0 -47 -13.5 -87 t-37 -70t-54 -47.5t-67.5 -17.5t-67.5 17.5t-54.5 47.5t-37 70t-13 87z" />
<glyph unicode=";" horiz-adv-x="466" d="M35 840q0 45 13 86t37 70.5t54.5 47t67.5 17.5t67.5 -17.5t54 -47t37 -70.5t13.5 -86q0 -47 -13.5 -87t-37 -70t-54 -47.5t-67.5 -17.5t-67.5 17.5t-54.5 47.5t-37 70t-13 87zM47 219q0 78 44 127t112 49q39 0 75.5 -20.5t65.5 -54t46.5 -78.5t17.5 -95q0 -53 -19.5 -103 t-52.5 -94t-75 -79t-85 -55l-61 30q37 16 61.5 49t24.5 78q0 66 -92 129q-61 39 -62 117z" />
<glyph unicode="&#x3c;" horiz-adv-x="587" d="M43 610l381 568h100l-168 -568l168 -565h-100z" />
<glyph unicode="=" d="M61 487v121h601v-121h-601zM61 729v121h601v-121h-601z" />
<glyph unicode="&#x3e;" horiz-adv-x="581" d="M8 49l168 567l-168 566h101l380 -566l-380 -567h-101z" />
<glyph unicode="?" horiz-adv-x="1249" d="M82 1282q0 14 6 37h-2q23 76 75 139.5t124.5 109.5t162 72.5t187.5 26.5q117 0 219 -36t180 -97t123 -145t45 -179q0 -80 -28.5 -131t-72.5 -84.5t-99.5 -55t-108.5 -42.5q-41 -14 -80 -32.5t-69.5 -42t-50 -55.5t-19.5 -75q0 -57 26 -131h-208q-6 43 -7 80 q0 59 16.5 100t43 69t57.5 46t60 35q33 18 73.5 37.5t75.5 54.5t59.5 89.5t24.5 144.5q0 86 -19.5 155.5t-55.5 119.5t-83 76.5t-102 26.5q-80 0 -129 -7t-77 -20.5t-38 -30.5t-10 -38q0 -25 14.5 -53.5t30.5 -58t30.5 -57t14.5 -48.5q0 -37 -15.5 -67.5t-42 -53t-62.5 -36 t-75 -13.5q-41 0 -75.5 13.5t-61 36t-42 53t-15.5 67.5zM422 205q0 45 13.5 86t37 70.5t54 47t67.5 17.5t67.5 -17.5t54 -47t37 -70.5t13.5 -86q0 -47 -13.5 -87t-37 -70t-54 -47t-67.5 -17t-67.5 17t-54 47t-37 70t-13.5 87z" />
<glyph unicode="@" horiz-adv-x="1198" d="M14 551q0 106 44 203.5t121 170t179.5 115.5t221.5 43q115 0 217 -42t179 -114.5t122 -170t45 -205.5q0 -57 -18.5 -112.5t-52.5 -99.5t-81 -71.5t-102 -27.5q-84 0 -172 59q-18 0 -32.5 -9t-40.5 -21.5t-66.5 -21.5t-110.5 -9q-94 0 -150.5 43t-56.5 147q0 63 22.5 103 t62.5 62.5t96.5 34t121.5 19.5q45 4 63.5 38t18.5 93q-18 96 -84 96q-31 0 -44 -27.5t-26.5 -61t-37 -61.5t-74.5 -28q-31 0 -61.5 19.5t-30.5 62.5q0 39 26.5 67.5t64.5 48t80 29t74 9.5q61 0 119 -29t103 -76t71.5 -108.5t26.5 -124.5v-172q0 -123 59 -123q14 0 34 54.5 t20 152.5q0 74 -18.5 161t-62.5 162.5t-119 128t-185 58.5q-98 0 -170 -39t-118 -105.5t-68.5 -153.5t-22.5 -186q0 -100 22.5 -183t69.5 -141t117.5 -90t169.5 -32q86 0 170 28.5t149 82.5l43 -54q-78 -59 -168 -92t-194 -33q-119 0 -222.5 42t-179.5 115t-120 170t-44 206 zM428 485q0 -86 37 -136t80 -50q25 0 45 12.5t35.5 30.5t23.5 41t8 45v197q-35 -29 -74.5 -36t-73.5 -14.5t-57.5 -25t-23.5 -64.5z" />
<glyph unicode="A" horiz-adv-x="1716" d="M27 33v59q31 0 62.5 4t61 14.5t52 28t33.5 41.5l563 1387h75l564 -1387q20 -51 90.5 -69.5t157.5 -18.5v-59h-742v59q61 0 113.5 18.5t52.5 53.5q0 4 -4 16l-47 113q-12 29 -41 63.5t-100 51.5q-102 26 -203 26h-8q-51 0 -103.5 -7t-99.5 -19q-53 -16 -89 -54.5 t-36 -58.5l-47 -115q-4 -12 -4 -18q0 -18 15 -30.5t40 -22t53.5 -13.5t52.5 -4v-59h-462zM438 440q68 27 137.5 41.5t141.5 14.5t141.5 -14.5t140.5 -41.5q-74 180 -140 346t-140 347z" />
<glyph unicode="B" horiz-adv-x="1492" d="M33 35v61q14 0 37.5 6.5t45 17.5t37 27.5t15.5 34.5v1262q0 14 -13.5 26.5t-33 19.5t-44 11t-44.5 4v62h864q57 -4 120.5 -20.5t116 -55.5t87 -101.5t34.5 -154.5q-4 -133 -54 -206t-122 -109h-2q59 -16 126 -53.5t123 -93.5t93 -132t37 -168q-4 -158 -53 -246t-129 -131 t-182.5 -52t-208.5 -9h-850zM451 96h133q100 0 199.5 3t178 29t128 85t49.5 174q0 92 -18.5 167t-47.5 130t-63.5 90t-69.5 47q-72 23 -190.5 35t-298.5 12v-772zM451 932q104 0 198 5t185 15q147 14 147 201q0 66 -11.5 121t-28.5 97t-38.5 68.5t-40.5 33.5q-83 32 -254 32 h-10h-147v-573z" />
<glyph unicode="C" horiz-adv-x="1343" d="M49 803q0 150 50.5 291t138.5 250.5t203.5 176t248.5 66.5q182 0 258 -71q37 -37 76 -52.5t84 -15.5q39 0 74 30.5t67 88.5h80l-186 -353h-70q-33 82 -67.5 140.5t-80.5 94.5t-108.5 52.5t-150.5 16.5q-92 0 -154.5 -45.5t-100.5 -118t-54.5 -164.5t-16.5 -189 q0 -209 39 -369.5t105.5 -270t156.5 -166t193 -56.5q109 0 212 78t168 242l91 2q-39 -92 -99.5 -173t-137.5 -140.5t-167 -94.5t-190 -35q-141 0 -262 63.5t-210 171t-139.5 250t-50.5 300.5z" />
<glyph unicode="D" horiz-adv-x="1402" d="M33 35v61q14 0 37.5 6.5t45 17.5t37 27.5t15.5 34.5v1262q0 14 -13.5 26.5t-33 19.5t-44 11t-44.5 4v62h682q141 -2 261 -69.5t208 -179.5t137 -255t49 -295q0 -174 -50 -310t-143.5 -230.5t-225.5 -144.5t-294 -50q-53 0 -120.5 3t-126.5 3q-94 0 -187.5 -2t-189.5 -2z M451 182q0 -20 15 -35.5t36.5 -26.5t44 -17.5t37.5 -6.5q137 0 230 21.5t151.5 73t84 138.5t25.5 220q0 53 -3 114.5t-13 129.5q-10 74 -23.5 154.5t-35 159.5t-54.5 151.5t-83 127t-118.5 87t-160.5 32.5q-47 0 -90 -15t-43 -46v-1262z" />
<glyph unicode="E" horiz-adv-x="1359" d="M33 35v61q14 0 37.5 6.5t45 17.5t37 27.5t15.5 34.5v1262q0 14 -13.5 26.5t-33 19.5t-44 11t-44.5 4v62h868q45 0 80 14t35 35q0 10 -8 18l86 4l233 -288l-61 -47q-37 39 -84 75.5t-96.5 64t-95.5 45t-83 17.5h-456v-573h391q51 0 98 34.5t92 82.5l60 -48 q-16 -20 -33 -39.5t-42.5 -50t-63.5 -79t-99 -125.5l-59 45q26 26 26 82q0 35 -14 34h-356v-772h456q37 0 83 16.5t94.5 44t95.5 64.5t86 78l61 -47l-233 -287l-86 4q8 8 8 17q0 20 -35 34.5t-80 14.5h-868z" />
<glyph unicode="F" horiz-adv-x="1245" d="M53 35v61q14 0 38 6.5t45.5 17.5t36.5 27.5t15 34.5v1262q0 14 -13 26.5t-32.5 19.5t-44 11t-45.5 4v62h869q45 0 79.5 14t34.5 35q0 10 -8 18l86 4l234 -288l-62 -47q-37 39 -84 75.5t-96 64t-95 45t-83 17.5h-457v-573h391q51 0 98.5 34.5t92.5 82.5l59 -48 q-16 -20 -32.5 -39.5t-42 -50t-63.5 -79t-100 -125.5l-59 45q27 27 27 86q0 31 -15 30h-356v-686q0 -20 15.5 -35.5t37 -26.5t45 -17.5t39.5 -6.5v-61h-555z" />
<glyph unicode="G" horiz-adv-x="1325" d="M41 803q0 158 53 300t142.5 249.5t206 171t243.5 63.5q184 0 256 -71h-2q37 -37 76 -52.5t84 -15.5q39 0 73.5 30.5t67.5 88.5h80l-186 -353h-70q-33 82 -67.5 140.5t-81 94.5t-109 52.5t-150.5 16.5q-92 0 -154.5 -45.5t-100 -118t-54 -164.5t-16.5 -189q0 -133 15 -230 t36 -181q27 -117 78 -209t115.5 -155.5t137 -96.5t144.5 -33q115 0 135 125q10 66 15.5 106t5.5 54v84q0 74 -19.5 120t-62.5 71.5t-111.5 34.5t-167.5 9v58h643q0 -129 -32.5 -261t-92.5 -247q-59 -113 -176.5 -172.5t-292.5 -59.5q-141 0 -262 63.5t-210 171t-139 250 t-50 300.5z" />
<glyph unicode="H" horiz-adv-x="1488" d="M29 35v61q14 0 37.5 6.5t45 17.5t37 27.5t15.5 34.5v1262q0 14 -13.5 26.5t-33 19.5t-44 11t-44.5 4v62h561v-62q-51 0 -97.5 -15t-46.5 -46v-512h584v512q0 14 -13 26.5t-33.5 19.5t-45.5 11t-45 4v62h563v-62q-53 0 -98 -15t-45 -46v-1262q0 -20 15 -35.5t36.5 -26.5 t47.5 -17.5t44 -6.5v-61h-563v61q14 0 37.5 6.5t45 17.5t38 27.5t16.5 34.5v686h-584v-686q0 -20 15.5 -35.5t37 -26.5t47 -17.5t44.5 -6.5v-61h-561z" />
<glyph unicode="I" horiz-adv-x="618" d="M37 35v61q14 0 37.5 6.5t45 17.5t37 27.5t15.5 34.5v1262q0 14 -13.5 26.5t-33 19.5t-44 11t-44.5 4v62h561v-62q-51 0 -97 -15t-46 -46v-1262q0 -20 15 -35.5t36.5 -26.5t47.5 -17.5t44 -6.5v-61h-561z" />
<glyph unicode="J" horiz-adv-x="632" d="M-449 -258q0 78 52.5 131t126.5 53q68 0 102.5 -33.5t51 -86t20.5 -112t12 -111.5t28.5 -86t67.5 -34q113 0 135 152q10 74 15.5 135.5t5.5 108.5q0 399 -3 792t-3 793q0 14 -13.5 26.5t-33 19.5t-44 11t-44.5 4v62h561v-62q-51 0 -96.5 -15t-45.5 -46q0 -387 2.5 -768 t2.5 -768q0 -88 -38 -176t-104.5 -160t-153.5 -117t-186 -45q-74 0 -148.5 24.5t-134 67.5t-97.5 104.5t-38 135.5z" />
<glyph unicode="K" horiz-adv-x="1546" d="M29 35v61q14 0 37.5 6.5t45 17.5t37 27.5t15.5 34.5v1262q0 14 -13.5 26.5t-33 19.5t-44 11t-44.5 4v62h561v-62q-51 0 -97.5 -15t-46.5 -46v-909q70 96 147 203.5t154.5 218t154.5 218t147 203.5q16 25 26 52.5t10 46.5q0 29 -22 28l-2 62h387v-62q-47 -6 -96 -19 t-94.5 -32.5t-84 -47.5t-63.5 -63q-96 -135 -190.5 -267t-190.5 -267q41 20 90 20q68 0 117 -25.5t86 -76.5t65.5 -129t55.5 -182l18 -74q16 -53 57.5 -86t104.5 -33q47 0 71.5 52.5t24.5 125.5l80 -4q-2 -115 -20.5 -187.5t-52 -115.5t-83 -59.5t-110.5 -16.5 q-111 0 -174.5 45.5t-99 112t-55 145t-40.5 146.5q-27 109 -74 177.5t-88 68.5q-20 -2 -44.5 -19.5t-53.5 -58.5l-160 -227l2 -226q0 -20 15.5 -35.5t37 -26.5t47 -17.5t44.5 -6.5v-61h-561z" />
<glyph unicode="L" horiz-adv-x="1363" d="M37 35v61q14 0 37.5 6.5t45 17.5t37 27.5t15.5 34.5v1262q0 14 -13.5 26.5t-33 19.5t-44 11t-44.5 4v62h555v-62q-23 0 -47.5 -4t-44 -11t-32.5 -19.5t-13 -26.5v-1348h456q37 0 83 16.5t94.5 44t95.5 64.5t86 78l61 -47l-233 -287l-86 4q8 8 8 17q0 20 -35 34.5 t-80 14.5h-868z" />
<glyph unicode="M" horiz-adv-x="1804" d="M49 1507v60h567v-62q-18 0 -30.5 -15t-12.5 -42q0 -37 23 -70q72 -102 142.5 -201.5t142.5 -197.5q41 53 100 124t114.5 142.5t94.5 136t39 103.5q0 20 -19 20h-24v62h563v-62q-53 0 -98 -15t-45 -46v-1262q0 -20 15 -35.5t36.5 -26.5t47.5 -17.5t44 -6.5v-61h-563v61 q14 0 37.5 6.5t45 17.5t38 27.5t16.5 34.5v1229q-20 -14 -38.5 -32.5t-31.5 -35.5q-90 -129 -184 -248.5t-192 -240.5l-99 -123h-16q-111 154 -218.5 306.5t-217.5 305.5q-10 16 -17.5 24.5t-23.5 23.5v-1209q0 -20 15 -35.5t36.5 -26.5t46.5 -17.5t43 -6.5v-61h-371v61 q14 0 38 6.5t45.5 17.5t36.5 27.5t15 34.5v1104q0 74 -3 114t-17 61.5t-42 28.5t-79 17z" />
<glyph unicode="N" horiz-adv-x="1480" d="M45 35v61q14 0 37.5 6.5t45.5 17.5t37 27.5t15 34.5v1262q0 14 -13 26.5t-32.5 19.5t-44 11t-45.5 4v62h195q35 0 72.5 -10.5t73.5 -29t66.5 -43t49.5 -50.5l700 -1061v1071q0 14 -13 26.5t-33.5 19.5t-45.5 11t-45 4v62h371v-62q-51 0 -96.5 -15t-45.5 -46v-1262 q0 -20 15.5 -35.5t37 -26.5t46 -17.5t43.5 -6.5v-61h-168q-59 0 -109.5 16.5t-88.5 40t-64.5 50t-38.5 46.5l-695 1076v-1082q0 -20 15.5 -35.5t37 -26.5t47 -17.5t44.5 -6.5v-61h-371z" />
<glyph unicode="O" horiz-adv-x="1402" d="M41 803q0 156 50 298t139 250.5t210 172t262 63.5q139 0 260 -63.5t210.5 -171t139.5 -249.5t50 -300t-50 -300.5t-139.5 -250t-210 -171t-260.5 -63.5q-141 0 -262 63.5t-210 171t-139 250t-50 300.5zM330 1044q0 -53 4 -114.5t12 -126.5q45 -367 158.5 -541t275.5 -174 q61 0 114.5 23.5t92.5 77t61.5 139.5t22.5 213q0 133 -16.5 262t-42 237.5t-57 192.5t-64.5 129q-114 158 -268 158q-61 0 -115.5 -27t-93.5 -84t-61.5 -147.5t-22.5 -217.5z" />
<glyph unicode="P" horiz-adv-x="1288" d="M37 35v61q14 0 37.5 6.5t45 17.5t37 27.5t15.5 34.5v1262q0 14 -13.5 26.5t-33 19.5t-44 11t-44.5 4v62h786q57 -4 127 -24.5t144 -55.5q78 -39 119.5 -117t41.5 -194q0 -311 -153 -404q-150 -88 -338 -88h-311v-502q0 -20 14 -35.5t35.5 -26.5t45 -17.5t38.5 -6.5v-61 h-549zM455 750h231q156 0 226.5 79.5t70.5 227.5q0 174 -38 277.5t-79 125.5q-88 45 -264 45h-147v-755z" />
<glyph unicode="Q" horiz-adv-x="1398" d="M37 803q0 156 50 298t139 250.5t210 172t262 63.5q139 0 260 -63.5t210 -171t139.5 -249.5t50.5 -300q0 -102 -23.5 -203.5t-67.5 -192t-107.5 -165t-141.5 -125.5h4q57 -129 145 -129q39 0 58.5 40t19.5 99v27l74 -4q8 -41 8 -87q0 -131 -60.5 -199.5t-170.5 -68.5 q-59 0 -105.5 20.5t-81.5 53.5t-60.5 75t-45.5 85q-25 -4 -50.5 -7.5t-54.5 -3.5q-141 0 -262 63.5t-210 171t-139 250t-50 300.5zM326 1044q0 -115 12 -225t33.5 -208.5t49.5 -181.5t58 -138q10 98 67.5 154.5t162.5 56.5q59 0 102 -24.5t72.5 -62.5t50.5 -83t37 -86 q4 -16 9 -28.5l9 -22.5q35 53 55.5 139t20.5 215q0 139 -16.5 267t-42 234.5t-57 186.5t-62.5 125q-111 158 -269 158q-61 0 -115 -27t-93 -84t-61.5 -147.5t-22.5 -217.5zM553 262q0 -51 22.5 -85t55.5 -53.5t71.5 -27.5t73.5 -8h2q-29 57 -48 104.5t-36.5 81t-36 53 t-45.5 19.5q-59 -2 -59 -84zM977 180h18q-2 4 -3 7t-3 8q-4 -4 -6 -7.5t-6 -7.5z" />
<glyph unicode="R" horiz-adv-x="1406" d="M33 35v61q14 0 37.5 6.5t45 17.5t37 27.5t15.5 34.5v1262q0 14 -13.5 26.5t-33 19.5t-44 11t-44.5 4v62h786q57 -4 127 -24.5t144 -55.5q78 -39 119.5 -117t41.5 -194q0 -141 -34.5 -233.5t-93 -148t-134.5 -80t-158 -28.5q61 -41 99.5 -91t62 -102.5t41 -100.5t37 -86 t48 -60.5t75.5 -22.5t72.5 52.5t25.5 125.5l78 -4q0 -111 -18.5 -184.5t-52 -116.5t-83 -60.5t-112.5 -17.5q-76 0 -133.5 27t-98.5 70t-64.5 97t-31.5 110l-49 239q-23 123 -143 123h-135v-113.5t-1.5 -137.5t-1.5 -137.5v-113.5q0 -20 15.5 -35.5t37 -26.5t45 -17.5 t38.5 -6.5v-61h-549zM451 750h231q156 0 226.5 79.5t70.5 227.5q0 174 -38 277.5t-79 125.5q-88 45 -264 45h-147v-755z" />
<glyph unicode="S" horiz-adv-x="1363" d="M35 18l186 353h70q31 -82 61.5 -137.5t74.5 -89t105.5 -48t151.5 -14.5q92 0 159.5 27.5t111.5 71.5t64.5 100.5t20.5 115.5q0 102 -44 165t-109.5 101.5t-141 58t-139.5 36.5q-68 16 -130 35.5t-122 42.5q-43 16 -88 36.5t-82 53t-61.5 81t-24.5 119.5q0 100 57.5 185.5 t143.5 147t185.5 95t183.5 33.5q94 0 153.5 -18.5t102.5 -41t78.5 -41t84.5 -18.5q78 0 142 119h80l-187 -352h-69q-33 82 -68 137t-79 89t-102.5 48.5t-137.5 14.5q-80 -2 -146.5 -22.5t-115 -56.5t-75 -85t-26.5 -109q0 -61 21.5 -98t54.5 -58.5t70.5 -32.5t72.5 -22 q53 -18 108.5 -32.5t110.5 -26.5q57 -12 122 -28.5t126.5 -40t118.5 -58.5t102 -86q27 -31 42.5 -68.5t23.5 -76.5t10 -76t2 -66q0 -94 -56 -178t-145.5 -147.5t-198 -100.5t-212.5 -37q-98 0 -157.5 18.5t-101.5 41t-77 41t-84 18.5q-41 0 -77 -30.5t-64 -88.5h-80z" />
<glyph unicode="T" horiz-adv-x="1679" d="M12 1350l232 288l88 -4q-10 -10 -10 -18q0 -20 33.5 -34.5t80.5 -14.5h817q45 0 80 14t35 35q0 10 -8 18l86 4l233 -288l-61 -47q-37 39 -84 75.5t-96 64t-95.5 45t-82.5 17.5h-256v-1347q0 -16 12 -27.5t32.5 -20t44 -11.5t46.5 -3v-61h-586v61q20 0 45 3t45.5 11.5 t33.5 19.5t13 28v1347h-260q-37 0 -83 -16t-94 -44t-95 -65t-86 -77z" />
<glyph unicode="U" horiz-adv-x="1667" d="M37 1505v62h555v-62q-23 0 -47.5 -4t-44 -11t-32.5 -19.5t-13 -26.5v-430q0 -203 32.5 -373t87 -294t122 -193.5t137.5 -69.5t137 56.5t120.5 171t85 289.5t31.5 415v428q0 14 -13 26.5t-32.5 19.5t-44 11t-45.5 4v62h555v-62q-23 0 -47.5 -4t-43.5 -11t-32.5 -19.5 t-13.5 -26.5v-430q0 -240 -55.5 -426.5t-147.5 -312t-211 -191.5t-243 -66q-125 0 -244 66t-212 194t-149.5 314t-56.5 428v424q0 14 -13.5 26.5t-33 19.5t-44 11t-44.5 4z" />
<glyph unicode="V" horiz-adv-x="1587" d="M37 1507v60h688v-60q-59 0 -105.5 -21.5t-46.5 -55.5q0 -6 2 -11q37 -96 66 -174t56.5 -151.5t56 -150.5t63.5 -169q25 -68 53.5 -138.5t63.5 -164.5q47 131 82 223t62.5 163t50 129t47 119.5t52 136.5t66.5 177q0 4 1 6t1 7q0 18 -14 32.5t-36.5 23.5t-49.5 14t-49 5v60 h430v-60q-53 0 -112.5 -24.5t-82.5 -63.5q-129 -344 -260 -693t-260 -693h-71l-525 1386q-23 47 -89 67.5t-140 20.5z" />
<glyph unicode="W" horiz-adv-x="2113" d="M12 1511v60h652v-64q-18 0 -44 -2t-49.5 -9t-40 -19.5t-16.5 -30.5q0 -12 6 -27q31 -86 56.5 -153.5t49 -129t48 -125t55.5 -140t68 -174t88 -228.5q31 80 62.5 160t62.5 159q-53 133 -104.5 269.5t-104.5 269.5q-14 39 -15 66q0 37 27 69.5t70 55t96 36t104 13.5 q43 0 87 -10.5t80 -30t57.5 -48t21.5 -65.5q0 -35 -16 -80l-99 -254q55 -147 116 -302.5t118 -305.5q53 139 91 235.5t65.5 167t48 125t42 108.5t46 117.5t59.5 153.5q4 12 11.5 28.5t7.5 27.5q0 18 -14.5 31.5t-38 22.5t-50 14t-51.5 5v60h440v-60q-29 0 -59.5 -4t-59 -15 t-50 -27.5t-29.5 -41.5l-535 -1386h-72l-243 635q-59 -160 -123 -319t-123 -316h-72l-536 1386q-16 29 -40 45.5t-50.5 25.5t-53 13t-47.5 8zM1094 1391.5q0 -7.5 4 -15.5l69 -178q8 23 21.5 51.5t26 57t21.5 56.5t9 48q0 29 -24.5 44t-53.5 15q-31 0 -52 -16t-21 -49v-13.5 z" />
<glyph unicode="X" horiz-adv-x="1753" d="M14 35v61q49 4 99.5 16.5t95.5 32t82.5 48t60.5 65.5q92 131 198.5 262t217.5 266q-102 137 -200.5 273.5t-196.5 283.5q-59 74 -152.5 114t-185.5 50l-2 60h647v-62q-41 0 -41 -55q0 -16 7 -37.5t13 -34.5q63 -92 130 -187t133 -183q6 -12 12 -19q80 98 156.5 193.5 t146.5 195.5q16 25 25.5 51.5t9.5 47.5q0 29 -23 28l-2 62h408v-62q-102 -12 -193.5 -51t-144.5 -111q-80 -111 -162 -216t-168 -212q119 -168 241 -337.5t228 -319.5q27 -39 70 -68.5t84 -51t73.5 -34t38.5 -18.5v-55h-575l2 69h4q16 0 25.5 14.5t9.5 35.5q0 16 -7.5 37.5 t-13.5 35.5h2q-90 125 -174 246t-172 242l-190 -240q-31 -41 -73 -88t-79 -94t-61.5 -89t-24.5 -69q0 -31 23 -31h4l2 -65h-408z" />
<glyph unicode="Y" horiz-adv-x="1609" d="M41 1507v60h553v-62q-18 0 -30.5 -15t-12.5 -42q0 -37 22 -70l295 -413q72 102 148 206.5t147 206.5q16 25 26.5 52.5t12.5 46.5q0 29 -24 28v62h387l-2 -62q-45 -6 -93.5 -19t-94.5 -32.5t-85 -47.5t-63 -63l-301 -423l2 -762q0 -16 12 -27.5t32.5 -20t44 -11.5t46.5 -3 v-61h-555v61q20 0 45 3t45 11.5t33.5 19.5t13.5 28l2 704q-86 121 -172 241l-172 240q-47 66 -115.5 107t-146.5 57z" />
<glyph unicode="Z" horiz-adv-x="1531" d="M8 68q0 14 30 38.5t56 75.5l987 1323h-319q-82 0 -163 1t-163 1q-35 0 -77 -14t-89 -42t-96 -66.5t-94 -86.5l-70 54l232 288l104 -4q-10 -10 -10 -20q0 -18 31.5 -32.5t74.5 -14.5l979 -2q0 -33 1 -45.5t-4 -20.5t-17 -21.5t-37 -45.5q-119 -158 -245 -328t-254 -341 t-254 -341t-244 -328h710q33 0 77 15.5t92 43t96.5 65.5t91.5 85l71 -53l-233 -287l-103 4q8 8 9 19q0 18 -33 32.5t-74 14.5h-1044v27.5t2 21.5q-4 -4 -8.5 -7t-6.5 -5q-4 -2 -4 -4h-2z" />
<glyph unicode="[" horiz-adv-x="507" d="M104 -147v1931h383v-62q-51 0 -97 -15t-46 -46v-1661q0 -20 15.5 -35.5t37 -27t47 -17.5t43.5 -6v-61h-383z" />
<glyph unicode="\" horiz-adv-x="1333" d="M8 1696h123l1157 -1755h-123z" />
<glyph unicode="]" horiz-adv-x="507" d="M104 -86q51 0 97.5 15.5t46.5 45.5v1661q0 20 -15.5 36t-37 27t-47 17t-44.5 6v62h383v-1931h-383v61z" />
<glyph unicode="^" horiz-adv-x="845" d="M41 885v100l377 381l379 -381v-100l-379 168z" />
<glyph unicode="_" d="M61 -412h601v-120h-601v120z" />
<glyph unicode="`" horiz-adv-x="555" d="M0 1671h256l117 -332l-103 -8z" />
<glyph unicode="a" horiz-adv-x="1171" d="M35 285q0 37 12 79t39 80.5t70 70.5t102 46q174 43 289 55q108 12 108 190q0 36 -12 68.5t-32.5 58t-47 41t-55.5 15.5q-53 0 -75.5 -31.5t-33.5 -78.5q-20 -86 -67 -124t-99 -38q-49 0 -89 30.5t-40 79.5q0 37 32 76t82 70t114.5 50t130.5 19q94 0 180 -45t150.5 -115.5 t102.5 -159.5t38 -177v-150q0 -154 42 -226.5t163 -72.5v-61q-297 0 -385 74q-6 2 -13.5 2h-13.5q-33 0 -50.5 -14.5t-48 -32t-90 -32t-176.5 -14.5q-102 0 -165.5 24t-99.5 61.5t-49 86t-13 95.5zM285 387q0 -82 19.5 -141.5t48 -97t62.5 -55t62 -17.5q37 0 72 17.5 t62.5 47t44 68.5t16.5 82v342q-23 -31 -61 -47.5t-81 -26.5t-87 -19.5t-78.5 -26.5t-57 -46t-22.5 -80z" />
<glyph unicode="b" horiz-adv-x="1183" d="M43 35v61q119 0 162 73t43 226v774q0 14 -5 45t-16.5 62t-30 53.5t-42.5 22.5q-37 0 -88 -37v53l385 299h59v-688q94 63 209 63q88 0 167 -40.5t137 -111.5t93 -164t35 -196q0 -104 -34 -197t-93 -163t-138 -111t-167 -41q-37 0 -71 11.5t-63.5 26t-55 25.5t-46.5 11 q-18 0 -35.5 -8t-39 -17.5t-48 -17.5t-63.5 -10q-35 -2 -98.5 -3t-155.5 -1zM510 395q0 -25 10 -80t32.5 -111.5t57.5 -99.5t86 -43q37 0 67 15.5t49 54.5t30.5 107.5t11.5 173.5q0 111 -15.5 212t-44 180t-68.5 126t-87 47q-39 0 -63.5 -21.5t-39 -52.5t-20.5 -67.5 t-6 -67.5v-373z" />
<glyph unicode="c" horiz-adv-x="985" d="M43 530q0 104 38 196.5t102.5 163.5t150.5 111.5t184 40.5q45 0 79 -9t62.5 -21.5t56 -21.5t62.5 -9q84 0 111 51h61l-135 -358h-47q-12 43 -34.5 99t-53.5 106.5t-69 84t-81 33.5q-47 0 -79.5 -23.5t-53 -66.5t-29 -100t-8.5 -125q0 -268 72 -406.5t184 -138.5 q53 0 100.5 16.5t86.5 43t66.5 60.5t43.5 69l39 -31q-23 -61 -67.5 -111.5t-103 -87.5t-124 -57.5t-127.5 -20.5q-102 0 -191 41t-154.5 111t-103.5 163t-38 197z" />
<glyph unicode="d" horiz-adv-x="1206" d="M35 530q0 104 33.5 196.5t92 163.5t137.5 111.5t169 40.5q31 0 58.5 -8t50 -19t40 -19.5t29.5 -8.5t21.5 11.5t15.5 25.5t8 29.5t2 23.5v92q0 14 -5 45t-16.5 62t-29.5 53.5t-43 22.5q-37 0 -88 -37v53l385 299h59v-1272q0 -76 7.5 -132t30 -93t64.5 -55.5t109 -18.5v-61 h-200q-6 0 -13.5 -1t-13.5 -1q-25 0 -51.5 1t-52 10t-50 28.5t-45.5 58.5q-119 -113 -272 -113q-92 0 -171 41t-137.5 111t-91 163t-32.5 197zM330 651q0 -100 13 -200.5t38 -181.5t61.5 -132t83.5 -51q49 0 81 25.5t51.5 68.5t26.5 98.5t7 116.5v97q0 53 -1 101t-8 93 t-22.5 91t-42.5 95q-29 53 -65.5 88t-83.5 35q-72 0 -105.5 -79.5t-33.5 -264.5z" />
<glyph unicode="e" horiz-adv-x="1024" d="M43 530q0 104 38 196.5t102.5 163.5t150.5 111.5t184 40.5q74 0 143.5 -24.5t128 -68.5t102.5 -104.5t71 -129.5q8 -25 8 -53q0 -27 -7.5 -49.5t-35 -38t-84 -23.5t-152.5 -8h-340q23 -193 85.5 -299.5t166.5 -106.5q53 0 100.5 16.5t86 43t66.5 60.5t44 69l39 -31 q-2 -6 -4 -10t-4 -9q-61 -117 -170 -187.5t-244 -70.5q-98 0 -185 41t-151.5 111t-101.5 163t-37 197zM340 711q0 -56 6 -117h227q35 0 57.5 11t22.5 50q0 10 -2 22.5t-6 29.5q-39 123 -90 199.5t-104 76.5q-49 0 -80 -74.5t-31 -197.5z" />
<glyph unicode="f" horiz-adv-x="788" d="M51 35v61q119 0 162 72.5t43 226.5v568h-205v63l205 16v127q0 90 38 179.5t102.5 160t150.5 114.5t180 44q68 0 139.5 -22.5t132 -65.5t98.5 -104.5t38 -137.5q0 -39 -13.5 -72.5t-37 -58t-54.5 -39t-63 -14.5q-70 0 -105 46t-50 109.5t-19.5 129t-12.5 104.5 q-16 74 -98 74q-63 0 -99 -40t-46 -114q-18 -147 -19 -241v-179h213v-79h-213v-568q0 -78 9.5 -134t33 -93t64.5 -54.5t106 -17.5v-61h-680z" />
<glyph unicode="g" horiz-adv-x="1071" d="M47 530q0 104 38 196.5t102.5 163.5t150.5 111.5t184 40.5q154 0 283 -98q27 31 57.5 50.5t77.5 19.5q33 0 80 -13v-153q-29 37 -58.5 60.5t-56.5 23.5q-33 0 -33 -29q0 -20 31 -65q96 -143 96 -308q0 -106 -39.5 -199t-106.5 -163t-154 -111t-183 -41q-35 0 -65.5 8.5 t-63.5 17.5t-67.5 17.5t-73.5 8.5q-53 0 -53 -64q0 -63 116 -63h277q74 0 147.5 -10.5t132 -38t95 -76.5t36.5 -129q0 -96 -42 -156.5t-106.5 -96.5t-144 -49.5t-155.5 -13.5q-74 0 -149.5 13.5t-141 38t-117 59.5t-75.5 76q6 0 31.5 20.5t55 44t55 44t34.5 20.5 q14 -61 58 -106.5t99.5 -75t117 -45t112.5 -15.5q78 0 137 31.5t59 99.5q0 41 -28.5 61.5t-75.5 29.5t-105.5 10t-119.5 4q-63 2 -127 5t-118 20.5t-96.5 56t-62.5 112.5q-6 18 -6 43q0 61 34 124.5t99 92.5q-80 70 -126 171.5t-46 223.5zM344 707q0 -113 22.5 -225.5 t57.5 -204t80 -147.5t90 -56t75.5 75.5t30.5 200.5q0 106 -21.5 216t-55 200t-75.5 149.5t-83 67.5h-12q-47 0 -78 -76t-31 -200z" />
<glyph unicode="h" horiz-adv-x="1398" d="M35 35v61q119 0 162 72.5t43 226.5v774q0 14 -5.5 45t-16.5 62t-29.5 53.5t-43.5 22.5q-37 0 -88 -37v53l385 299h60v-557q0 -41 8 -67.5t43 -26.5q37 0 79 13t79 13q88 0 166.5 -26.5t137 -90t93.5 -169t35 -262.5v-99q0 -76 7 -132t29.5 -93t64.5 -55.5t112 -18.5v-61 q-152 0 -247 16.5t-150.5 49t-78.5 79.5q-24 46 -31 106q-6 52 -6 114v18v20q0 63 -5 135q-6 74 -14.5 148t-29 133t-53 96t-88.5 37q-41 0 -69.5 -20.5t-47 -52t-26.5 -70.5t-8 -76v-373q0 -78 9 -134t32.5 -93t64.5 -54.5t107 -17.5v-61h-680z" />
<glyph unicode="i" horiz-adv-x="776" d="M43 35v61q113 0 159 64.5t46 204.5v30l-4 150q0 14 -6.5 43.5t-17.5 60.5t-28.5 53.5t-41.5 22.5q-39 0 -89 -35v53l385 299h60l4 -647q0 -78 9 -134t31.5 -93t64.5 -54.5t108 -17.5v-61h-680zM158 1446q0 45 13 86t36.5 70.5t54.5 47t68 17.5t67.5 -17.5t54 -47 t37 -70.5t13.5 -86q0 -47 -13.5 -87t-37 -69.5t-54 -47t-67.5 -17.5t-68 17.5t-54.5 47t-36.5 69.5t-13 87z" />
<glyph unicode="j" horiz-adv-x="528" d="M-397 -258q0 39 13 72.5t35.5 58.5t53.5 39t66 14q45 0 74.5 -20.5t48 -54t27.5 -76.5t15.5 -86t9.5 -84t9 -70q16 -72 98 -72q123 0 146 152q10 74 15 135.5t5 108.5q0 172 -2 342t-2 344q0 14 -5 43.5t-17.5 60.5t-30 53.5t-41.5 22.5q-39 0 -88 -35v53l385 299h59 q0 -287 2 -568t2 -566q0 -90 -39 -179t-103.5 -160t-150.5 -115t-178 -44q-70 0 -141.5 22.5t-131 65.5t-97 104.5t-37.5 139.5zM129 1446q0 92 49 156.5t123 64.5q35 0 65.5 -17.5t54 -47t38 -70.5t14.5 -86q0 -47 -14.5 -87t-38 -69.5t-54 -47t-65.5 -17.5 q-74 0 -123 64.5t-49 156.5z" />
<glyph unicode="k" horiz-adv-x="1310" d="M51 35v61q119 0 162 73t43 226v774q0 14 -5 45t-16.5 62t-30 53.5t-42.5 22.5q-37 0 -88 -37v53l385 299h59v-1114l238 281q10 12 18 34.5t8 46.5q0 43 -71 48v63h428v-63q-160 -8 -236 -55.5t-76 -125.5q0 -31 21 -75l223 -478q25 -51 42 -78.5t36.5 -41t42 -16.5 t55.5 -3v-55h-149q-55 0 -112.5 20.5t-107 53t-87 72.5t-54.5 79l-135 293q-43 -51 -63.5 -95t-20.5 -108q4 -129 47 -191.5t166 -62.5v-61h-680z" />
<glyph unicode="l" horiz-adv-x="768" d="M51 35v61q119 0 162 73t43 226v774q0 14 -5 45t-16.5 62t-30 53.5t-42.5 22.5q-37 0 -88 -37v53l385 299h59v-1272q0 -78 9.5 -134t33 -93t64.5 -54.5t106 -17.5v-61h-680z" />
<glyph unicode="m" horiz-adv-x="1906" d="M-4 35v61q119 0 162 73t43 226v94v-43v99q0 14 -5.5 43.5t-16.5 60.5t-29.5 53.5t-43.5 22.5q-39 0 -88 -35v53l385 299h60q0 -37 26 -36q14 0 34 6t44.5 12t51 12t53.5 6q188 0 297 -100q29 29 65.5 47.5t75.5 29.5t74 16t57 5q92 0 175 -38.5t145.5 -102t101.5 -147.5 t45 -172q2 0 2 -86v-99q0 -78 9.5 -134t33 -93t64.5 -54.5t106 -17.5v-61q-29 -2 -55.5 -2h-50.5q-143 0 -227.5 21.5t-128.5 62.5t-57 97t-13 128q0 45 6 93t6 100q0 59 -12.5 136t-38 145.5t-64.5 115.5t-90 47q-39 -2 -64.5 -24.5t-40 -54.5t-19.5 -67.5t-5 -64.5v-373 q0 -78 9 -134t33 -93t65 -54.5t106 -17.5v-61h-627v67q86 14 117 86t31 207v400q0 88 -50.5 140t-117.5 52q-49 0 -83 -19.5t-53.5 -50t-27.5 -69.5t-8 -80v-373q0 -135 29.5 -206.5t123.5 -86.5v-67h-620z" />
<glyph unicode="n" horiz-adv-x="1306" d="M2 35v61q119 0 162 72.5t43 226.5v150q0 14 -5 43.5t-16.5 60.5t-30 53.5t-42.5 22.5q-39 0 -88 -35v53l385 299h59q0 -39 27 -38q16 0 34 8q61 30 143 30h5q88 0 167 -25.5t137 -88t93 -169t35 -265.5v-99q0 -76 7 -132t29.5 -93t64.5 -55.5t112 -18.5v-61 q-184 0 -290.5 20.5t-162 60.5t-70 97t-14.5 133q0 45 6.5 94t6.5 103q0 94 -18.5 174t-47 138t-64.5 90t-71 32q-39 0 -63.5 -21.5t-39 -52.5t-20.5 -67.5t-6 -67.5v-373q0 -78 9 -134t33 -93t64.5 -54.5t106.5 -17.5v-61h-680z" />
<glyph unicode="o" horiz-adv-x="1042" d="M51 530q0 104 38 196.5t102.5 163.5t150.5 111.5t184 40.5t184.5 -40.5t152 -111.5t103.5 -164t38 -196q0 -104 -38 -196t-102.5 -163t-151.5 -112t-186 -41q-98 0 -185 41t-151.5 111t-101.5 163t-37 197zM348 707q0 -113 22.5 -225.5t57.5 -204t80 -147.5t90 -56 t76 75.5t31 200.5q0 106 -21.5 216t-55.5 200t-76 149.5t-83 67.5h-12q-47 0 -78 -76t-31 -200z" />
<glyph unicode="p" horiz-adv-x="1150" d="M-4 -543q119 0 162 73t43 226v772q0 14 -5.5 45t-16.5 62t-29.5 53.5t-43.5 22.5q-37 0 -88 -37v55l385 297h60q0 -35 20 -35q10 0 31 8.5t45.5 17.5t54 17t58.5 8q88 0 167 -40.5t137 -111.5t93 -164t35 -196q0 -104 -34 -197t-93 -163t-138 -111t-167 -41 q-27 0 -54.5 8.5t-52 19.5t-44 19.5t-29.5 8.5q-29 0 -29 -51v-267q0 -76 9 -132t32.5 -93t64.5 -55.5t107 -18.5v-61h-680v61zM463 536q0 -51 4 -112.5t15.5 -126t30.5 -117.5t51 -87t79 -34q37 0 66.5 14.5t51 52.5t34 106.5t12.5 179.5t-15.5 212t-44 180t-68.5 126 t-87 47q-39 0 -63.5 -21.5t-39 -52.5t-20.5 -67.5t-6 -67.5v-156v-76z" />
<glyph unicode="q" horiz-adv-x="1050" d="M47 530q0 104 34 196.5t92 163.5t137 111.5t169 40.5q49 0 92 -9t82 -22.5t75 -27.5t69 -25q8 -2 14 -3t12 -1q53 0 78 72h74v-1253q0 -78 8 -134.5t30.5 -93.5t64.5 -54t108 -17v-64h-680v64q119 0 162 72.5t43 226.5v211q0 29 -13.5 50t-40.5 21q-6 0 -13 -2t-17 -6 q-76 -29 -148 -29q-92 0 -171 41t-137 111t-91 163t-33 197zM342 651q0 -113 15.5 -215t42 -179t63.5 -123t80 -46q86 0 127 75.5t41 194.5q0 74 1 136v20q0 52 -4 102q-6 58 -21 117.5t-50 126.5q-29 55 -69 95t-87 40q-72 0 -105.5 -79.5t-33.5 -264.5z" />
<glyph unicode="r" horiz-adv-x="1146" d="M6 35v61q119 0 162 72.5t43 226.5v150q0 14 -5 43.5t-16.5 60.5t-30 53.5t-42.5 22.5q-39 0 -88 -35v53l385 299h59v-63q94 63 209 63q68 0 140.5 -23.5t132 -66.5t97.5 -104.5t38 -136.5q0 -39 -13.5 -73t-37 -58.5t-54.5 -39t-63 -14.5q-68 0 -103 45t-50 107.5 t-20.5 129t-13.5 110.5q-16 71 -96 71h-2q-127 0 -145 -151q-18 -147 -19 -244v-199q0 -78 9.5 -134t33 -93t64.5 -54.5t106 -17.5v-61h-680z" />
<glyph unicode="s" horiz-adv-x="1148" d="M47 29l150 356l53 2q18 -57 50 -111.5t77 -97.5t102.5 -68.5t128.5 -25.5q47 0 89 7t74 22.5t50.5 38t18.5 53.5q0 55 -33 92t-85 63.5t-117.5 47t-133.5 38.5t-133.5 41t-116.5 57t-83 85t-32 127q0 39 13.5 89t57.5 93t127 72.5t220 29.5q88 0 139.5 -9t85 -20.5 t63.5 -20.5t79 -9q39 0 73.5 11.5t51.5 39.5h67l-149 -358h-53q-20 59 -48 115.5t-69 100.5t-99.5 70.5t-140.5 26.5q-39 0 -74.5 -6t-64.5 -20.5t-46 -37t-17 -53.5q0 -41 35.5 -69.5t92 -50t126 -41t139.5 -41.5q70 -23 140.5 -53.5t126.5 -73.5t91 -103.5t35 -140.5 q-2 -55 -22.5 -105.5t-74 -88t-149.5 -61.5t-248 -24q-80 0 -130 9.5t-87 20.5t-69.5 20.5t-77.5 11.5q-43 0 -81 -10.5t-54 -40.5h-68z" />
<glyph unicode="t" horiz-adv-x="651" d="M47 963v63q88 10 142.5 41t90 79t58 115.5t47.5 151.5h57q-8 -53 -9 -104.5t-1 -87.5v-179h213v-79h-213v-568q0 -78 9.5 -134t33 -93t64.5 -54.5t106 -17.5v-61q-27 0 -53.5 -1t-54.5 -1q-68 0 -133.5 9t-118 46t-84 109.5t-31.5 197.5v568h-123z" />
<glyph unicode="u" horiz-adv-x="1415" d="M59 690v53l385 299h60l4 -520q2 -63 12 -136t40 -135.5t82 -103.5t138 -41q84 0 129 52.5t45 132.5v278q-2 18 -8 45t-18.5 51.5t-29.5 42t-38 17.5q-35 0 -86 -35v53l385 299h60v-647q0 -78 9 -134t32.5 -93t65.5 -54.5t108 -17.5v-61h-445h27q0 47 -55 47 q-35 0 -91 -19q-129 -43 -241 -43q-109 0 -182.5 25t-117.5 79t-64.5 142t-22.5 215l-2 88q-2 18 -8.5 45t-18.5 51.5t-29.5 42t-38.5 17.5q-35 0 -86 -35z" />
<glyph unicode="v" horiz-adv-x="1386" d="M51 963v63h629v-63q-43 -4 -75 -33t-32 -68q0 -14 7 -22l223 -455l194 446q4 12 4 23q0 37 -39.5 73t-95.5 36v63h477v-63q-88 0 -159.5 -20.5t-98.5 -82.5l-372 -842h-70l-403 846q-43 88 -189 99z" />
<glyph unicode="w" horiz-adv-x="1898" d="M47 963v63h629v-63q-43 -4 -75 -33t-32 -68q0 -14 6 -22l224 -455l207 473h77l232 -473l196 446q4 12 5 21q0 37 -40 74t-98 37v63h477v-63q-86 0 -158.5 -20.5t-97.5 -82.5l-372 -842h-70l-233 486l-215 -486h-70l-403 846q-43 88 -189 99z" />
<glyph unicode="x" horiz-adv-x="1390" d="M39 35v61q72 0 147.5 14.5t137.5 82.5l245 268l-325 407q-37 43 -71 69t-107 26v63h604v-63q-35 0 -53.5 -21.5t-18.5 -44.5q0 -14 10 -29l154 -194l178 194q10 10 10 23q0 23 -38 47.5t-81 24.5v63h449v-63q-172 0 -256 -95l-221 -245l342 -430q35 -43 77 -71 q39 -26 105 -26h10l2 -61h-647l-2 61q47 0 75 23.5t28 48.5q0 14 -9 25l-174 217l-196 -217q-10 -14 -11 -25q0 -27 36 -49.5t91 -22.5v-61h-491z" />
<glyph unicode="y" horiz-adv-x="1394" d="M47 -168q0 74 45 124t113 50q27 0 54.5 -12t51 -31.5t37.5 -46.5t14 -57q0 -16 -6 -30.5l-12 -29t-12 -32t-6 -41.5q0 -88 67 -88q39 0 74 30.5t63 98.5l113 256l-401 841q-43 88 -189 99v63h629v-63q-47 -4 -77 -36t-30 -67q0 -12 7 -20l223 -455l196 446q4 12 5 21 q0 37 -40 74t-98 37v63h478v-63q-86 0 -159 -20.5t-97 -82.5l-373 -842l-148 -323q-78 -166 -217 -166q-74 0 -130 29.5t-95 73.5t-59.5 97.5t-20.5 102.5z" />
<glyph unicode="z" horiz-adv-x="1292" d="M35 35v6q-1 44 25 84q28 43 65 82l709 756h-328q-82 0 -192.5 -37t-221.5 -127l-49 43l291 258l51 -45q-8 -8 -8 -15q0 -6 12 -9t31.5 -4t43.5 -1h44h663q-2 -49 -24.5 -88t-52.5 -72l-713 -770h414q80 0 189.5 37t209.5 123l51 -43l-291 -256l-51 43q8 8 8 12 q0 6 -16 11.5t-37.5 7.5t-42 3t-29.5 1h-751z" />
<glyph unicode="{" horiz-adv-x="561" d="M47 825q0 55 90 121q80 43 80 162q0 100 -14.5 221t-14.5 232q0 49 8.5 104t31 101t63.5 77t106 31q31 0 63 -12.5t65.5 -45t67.5 -91t66 -148.5l-38 -23q-10 25 -24.5 52.5t-31 50t-33 37t-32.5 14.5q-39 0 -60.5 -37t-21.5 -100q0 -90 14 -196.5t14 -221.5 q0 -41 -1 -84t-6 -85t-14 -79t-26 -67q33 -66 40 -151t7 -167q0 -113 -14 -221.5t-14 -200.5q0 -61 22.5 -97t59.5 -36q16 0 32.5 14.5t33 37t30.5 50t25 52.5l38 -23q-33 -90 -66.5 -148.5t-67 -91t-65.5 -45t-63 -12.5q-25 0 -45 7.5t-39 17.5q-80 43 -102.5 111.5 t-22.5 177.5q0 106 14.5 224t14.5 218q0 125 -80 172q-90 43 -90 98z" />
<glyph unicode="|" horiz-adv-x="372" d="M92 -41v1739h178v-1739h-178z" />
<glyph unicode="}" horiz-adv-x="532" d="M-117 96l39 23q10 -25 23.5 -52.5t29 -50t33 -37t33.5 -14.5q39 0 60.5 36t21.5 97q0 90 -14.5 200t-14.5 222q0 82 8.5 168t40.5 148q-33 66 -41 150.5t-8 166.5q0 115 14.5 220.5t14.5 197.5q0 63 -21.5 100t-60.5 37q-16 0 -33.5 -14.5t-33 -37t-29 -50t-23.5 -52.5 l-39 23q33 90 67 148.5t67.5 91t65.5 45t62 12.5q25 0 45.5 -7t38.5 -18q78 -43 101.5 -111.5t23.5 -176.5q0 -109 -15 -226.5t-15 -218.5q0 -127 82 -170q88 -45 88 -100t-88 -119q-82 -47 -82 -164q0 -102 15 -221t15 -229q0 -49 -8 -103.5t-30.5 -101.5t-63.5 -78 t-107 -31q-31 0 -62.5 12.5t-65 45t-67.5 91t-67 148.5z" />
<glyph unicode="~" horiz-adv-x="1284" d="M43 973q0 57 26.5 102t67.5 78t89 50.5t89 17.5q37 0 82 -11.5t92.5 -30t93.5 -41t85 -46.5q49 -31 99 -65t96 -61.5t86 -45t69 -17.5q39 0 66.5 26.5t27.5 61.5q0 37 -24.5 82t-53.5 82l41 35q78 -96 112 -171t34 -134q0 -66 -25 -115t-62.5 -83t-80.5 -50t-80 -16 q-35 0 -74 13t-80 32.5t-82 45t-78 50.5q-41 27 -86 55.5t-88 52t-81.5 39t-67.5 15.5q-20 0 -43 -7.5t-42.5 -21.5t-31.5 -34.5t-12 -47.5q0 -41 23.5 -89t64.5 -95l-53 -37q-111 127 -155 221t-44 160z" />
<glyph unicode="&#xa1;" horiz-adv-x="430" d="M35 1417q0 45 13 86t37 71t54.5 47t67.5 17t67.5 -17t54 -47t37 -71t13.5 -86q0 -47 -13.5 -87t-37 -69.5t-54 -47t-67.5 -17.5t-67.5 17.5t-54.5 47t-37 69.5t-13 87zM39 -2l102 997h123l113 -997h-338z" />
<glyph unicode="&#xa2;" horiz-adv-x="985" d="M43 803q0 98 34 187t93 158t138 113t171 52v301h96v-303q31 -4 54.5 -14.5t46 -19.5t47.5 -16.5t55 -7.5q84 0 111 52h61l-135 -359h-47q-12 37 -31.5 86t-44 95.5t-54.5 83t-63 49.5v-846q18 -6 41 -6q53 0 100.5 16t86.5 43t66.5 61.5t43.5 69.5l39 -31 q-18 -55 -58 -102t-91 -83t-110.5 -59.5t-117.5 -29.5v-227h-96v227q-94 8 -174 53t-138 114.5t-91 158t-33 184.5zM360 956q0 -90 11.5 -166.5t28 -138t38 -106.5t41.5 -70v785h-4q-65 -23 -90 -113q-12 -41 -18.5 -89t-6.5 -102z" />
<glyph unicode="&#xa3;" horiz-adv-x="1329" d="M43 625h213v544q0 90 38 179.5t102.5 160t150.5 114.5t180 44q90 -2 172 -25.5t143.5 -66.5t98.5 -103.5t37 -136.5q0 -39 -13.5 -72.5t-37 -58t-54.5 -39t-63 -14.5q-47 0 -78 21.5t-48.5 54.5t-25.5 73.5t-10 81.5q-4 39 -14.5 81t-31 76t-50 55.5t-70.5 21.5 q-63 0 -99 -40t-46 -114q-18 -147 -19 -241v-596h213v-80h-213v-443h328q37 0 83 16.5t94 44t95 64.5t86 78l62 -47l-234 -287l-86 4q8 8 8 17q0 20 -34.5 34.5t-79.5 14.5h-719v61q14 0 37.5 6.5t45 17.5t37 27.5t15.5 34.5v357h-205z" />
<glyph unicode="&#xa4;" horiz-adv-x="1523" d="M-100 -18q0 14 8 24l8 12q-4 16 -4 19q0 12 12.5 35.5t27.5 48t30.5 45t19.5 24.5l6 17l15 10h6l22 33l45 14h33l41 17l84 18q2 2 2 4q-23 72 -23 119t15.5 69.5t42.5 49.5l33 22q2 0 4 1t4 1l16 6h-2h2q4 0 6 2q27 -4 63 -17t64 -32q2 0 8.5 15.5t14.5 36t16 40t12 27.5 q20 37 27.5 77t11.5 83t10.5 86t24.5 84q4 39 21.5 76.5t17.5 74.5q0 4 -1 9.5t-1 9.5l-31 18l-34 -10l-11 2q-23 -6 -38 -19.5t-37 -13.5q-4 0 -6.5 1t-4.5 1l107 47l-31 25q-2 0 -19.5 -8t-19.5 -8q4 4 12.5 8t22.5 12q-18 18 -33.5 37.5t-15.5 48.5t12 53.5t12 51.5 q0 23 -4 46t-10 52q0 20 12.5 51t27.5 59.5t28.5 49t15.5 20.5h10q4 0 12.5 -18.5t17.5 -42t18.5 -45t19.5 -27.5q10 -8 21.5 -10t21.5 -2q16 0 31.5 2t31.5 2q31 0 59.5 -10.5t55.5 -10.5q14 0 24.5 2t19.5 13.5t19.5 36t22.5 67.5q14 58 49 64h6q6 -14 22.5 -42t33 -60 t29 -61.5t12.5 -49.5q0 -16 -3.5 -30.5t-3.5 -31.5q0 -35 16.5 -69.5t16.5 -65.5q0 -41 -31 -68q0 -6 10.5 -6t10.5 -4h-29q-10 -4 -18 -12l88 -33q0 -2 1 -2t1 -2h-4q-4 0 -8 4l-4 -4q-2 0 -3 4t-6 4q-2 0 -4 -2l-16 6q-12 0 -26.5 8.5t-26.5 8.5t-21 -6l-4 -5q-2 -2 -2 -4 t2 -2l29 -16l-15 4q-6 4 -11 5t-9 5q-4 -2 -13.5 -4t-17.5 -7t-14 -16.5t-6 -31.5q0 -47 22.5 -97.5t30.5 -101.5q14 -57 9 -113.5t9 -109.5q2 0 19.5 29.5t39 65.5t41 67.5t25.5 38.5q20 39 44 75.5t40 79.5l6 13q4 37 22.5 75.5t18.5 100.5q0 35 -8 66.5t-19 62 t-19.5 61.5t-8.5 62q0 29 9.5 51t41.5 51h4l17 4l51 -12q25 -16 44.5 -50t31.5 -74t18 -82t6 -77q0 -197 -157 -422q0 -2 -6 -4q-43 -68 -77 -115t-57.5 -82.5t-36 -65.5t-12.5 -60q2 -2 6 -2q23 0 60 13t63 13q41 0 64 -22l33 -41q16 -31 29.5 -69t13.5 -75 q0 -49 -39 -82.5t-89.5 -55t-97.5 -33t-61 -15.5q-35 -2 -74 -11t-61 -14q-6 -12 -5 -27.5t-22 -19.5l-10 2q-16 -16 -55 -16q-10 0 -15.5 3t-9.5 3q-2 0 -3 -1t-3 -1l-31 16l-10 21h-35l-14 -37q-12 -4 -15 -4q-4 0 -24 4l-4 -14q-4 -4 -8.5 -4t-6.5 -2l-4 -2l-28 20l-2 -4 l-3 4q-4 -2 -8 -6q-2 -2 -2 -6h-4q-25 14 -24 55q-12 6 -29 5t-31 3l-45 6q-12 0 -33.5 3.5t-41 8.5t-36 10t-20.5 9q-92 23 -137 41t-74 18h-47l-14 5l-60 -11q27 -29 31 -61q0 -12 -8 -27l-41 -18l-6 -10l-19 -19l-24 -4l-6 6l-39 17q-6 0 -7 -13v-4q0 -2 3 -2l47 -22 q4 -12 4 -13q0 -2 -4 -14l-11 -10q2 0 -14 -4h-10l-19 8l-20 22l-12 -10q0 -10 10 -14t22.5 -9.5t22.5 -11.5t10 -20q0 -2 -4 -14v-5q12 -8 26.5 -10t14.5 -22q0 -23 -10 -29t-25 -6q-10 0 -21.5 2t-21.5 2q-4 -4 -5 -2t-1 -2l41 -78l-4 -8q-4 0 -12.5 11t-15.5 25.5t-12 28 t-5 17.5q0 10 2 12q0 2 -2 4h-10q-2 -2 -2 -12v-11.5t2 -17.5l28 -45l-4 -8h-6q-8 20 -21.5 39.5t-13.5 46.5q6 6 6 12q0 2 -15 20.5t-15 37.5zM-86 -16q0 -29 30.5 -46.5t65.5 -17.5h10l11 10q0 18 -6 23l-19 6q-18 0 -24 2l-21 -6q0 -2 -1 -2t-1 -2t6 -2l25 4l16 -2l4 -10 h2q-6 -6 -20 -11q-29 4 -47.5 16.5t-18.5 35.5q0 10 4 18l-2 2h-4h-6q-4 -4 -4 -18zM-74 47q0 -33 24.5 -46t33.5 -13q8 0 8 6q0 4 -8.5 16.5t-18.5 12.5q-4 0 -4 -5l10 -6l6 -12q0 -2 -6 -2q-10 4 -24.5 16.5t-14.5 30.5q0 10 7.5 16.5t7.5 10.5q0 2 -1 2t-1 2l-2 2 q-2 0 -9.5 -10.5t-7.5 -20.5zM-59 -12q2 0 2 -19l8 -6q8 4 14 10l-20 15h-4zM-43 88q4 -12 4 -10l10 -15q4 -8 6 -14l15 -2q4 -4 6 -4q4 0 6 1t6 1l4 -2l4 12l-14 15l-22 6l24 -21v-4q-2 0 -2 -1t-2 -1t-2 3t-4 3h-6q-12 2 -25 43l8 27l-8 -4zM-12 139q0 -10 18.5 -24.5 t38.5 -14.5q0 -2 -2 -2v8l-33 17l-18 20h-2q0 -2 -1 -2t-1 -2zM0 162q8 -18 22.5 -29.5t24.5 -11.5q6 0 8 2l-41 24l-12 21q-2 -2 -2 -6zM16 186q0 -16 7.5 -24t42.5 -25q6 2 14 2l-29 15q-20 20 -20 49h-2l-2 2l-9 -4q-2 -4 -2 -15zM47 197q0 -10 7 -23.5t18 -19.5l24 -9 l10 2q6 2 9 9q0 29 -12.5 43t-24.5 18q-6 0 -6 -6q0 -4 10 -11t20 -24q0 -2 -2 -8t-10 -12q-6 0 -14 8l-10 10h-5q-2 0 -2 2l-2 -2h2q-6 8 -6 23q0 20 10.5 30.5t25.5 14.5t30.5 5t27.5 5h7q6 0 6 4v2h-6q-16 -8 -36 -8t-35 -2t-25.5 -12.5t-10.5 -38.5zM74 184h2v-6 q2 2 4 2q-6 2 -6 4zM176 256q0 -2 2 -4l92 -2l-14 26h-8l-62 -6q-10 -4 -10 -14zM264 412q0 -12 3 -41t8.5 -58.5t11.5 -51t12 -21.5q104 -35 196.5 -57.5t153.5 -22.5q23 0 29 2q0 8 -1 24.5t-3 33t-7 31.5t-12 21q-12 -4 -20 -4h-27h-14q-35 0 -43 -12t-19 -23q-6 2 -12 3 h-2v4l57 118q-41 14 -74.5 22.5t-67.5 21t-70.5 31t-81.5 52.5h-2h-3q-12 -41 -12 -73zM287 504l41 -35q16 -4 39.5 -17.5t54.5 -27.5t69.5 -27.5t86.5 -17.5l4 18q0 2 2 4q0 10 -9 19l-40 6l-13 8q-41 6 -66.5 23.5t-45.5 21.5q-20 12 -41 22.5t-35 28.5l-2 11q-2 2 -4 2 l-31 -23l-6 -10q-4 -4 -4 -6zM346 545q0 -4 4 -8l23 -17q4 0 5 -3t5 -3h2q0 2 -1 2t-1 2q0 8 6 19l6 12q2 0 4 -2l-41 8q-10 -4 -11 -5t-1 -5zM371 539l4 6h2h6q2 0 2 -8q0 -4 -8 -5q-6 0 -6 7zM397 510l9 -8q0 -6 2 -6q0 2 2 4l14 39q0 2 -4 2l-4 2l-2 -11l-11 -6 q-4 -14 -6 -16zM422 494l49 -25l-4 8q0 10 2 9t6 3v23h-6q0 -10 -10 -10v-15l-8 -4q-10 4 -11 9q2 0 2 2t2 6l5 4v8q0 14 2 14t2 -2l-9 4l-2 -6q-6 -6 -12 -8q0 -2 1 -5t1 -5zM479 461v6q10 -8 17 -8q4 0 4 12l-8 12l8 13q-2 2 -3 2t-3 2l-11 -15q0 -4 1 -6t1 -4v-4 q-4 -10 -6 -10zM508 469h4q8 2 10 8q-2 0 -6 4l-2 2q-6 -12 -6 -14zM508 522q0 -12 15.5 -25.5t33.5 -30.5t33.5 -40t15.5 -51q0 -29 -8 -47q2 -8 10 -9l45 -2q-16 47 -22 98.5t-17 76.5q-16 33 -24.5 77t-14.5 101h-4q-12 -12 -23 -33t-20.5 -42.5t-14.5 -42t-5 -30.5z M510 455l51 -15l-26 27l-7 -8q-2 -2 -6 -2h-8q-4 0 -4 -2zM532 1479q0 -27 17.5 -46.5t17.5 -41.5q0 -18 -4 -31.5t-10 -24t-10 -18.5t-4 -21q0 -12 6 -36.5t16 -24.5l14 2v-4l-12 -2l8 -21l11 -4l131 27l-107 -2q0 2 2 4l-4 4l35 4q2 2 8 2h60q16 0 36.5 -2t20.5 -10 q0 -2 -4 -2h6q10 0 16 -2q0 -10 -4 -15h-8q-6 -12 -6 -14h2q-12 -12 -32.5 -12t-35.5 -6q0 -4 17.5 -7.5t34.5 -3.5q29 0 53 8.5t24 24.5q0 10 -20.5 26.5t-24.5 29.5q0 2 1 3t1 3t2 2v4q20 6 64 6q35 -10 37 -21v-4l-45 -45v-12q2 -8 8 -8l22 -6q10 -4 19.5 -7.5t26.5 -3.5 q35 0 55 15l-99 16l-12 12q2 12 10 15q2 -2 13 -2h10t16 2q47 0 93.5 -5t93.5 -7q10 16 23.5 29.5t13.5 33.5q0 14 -8.5 30.5t-19.5 33t-19.5 33t-8.5 28.5q0 18 12.5 34.5t12.5 39.5q0 37 -19.5 71.5t-29.5 69.5q0 2 -2 10t-5.5 18.5t-6.5 18.5t-5 8q-8 0 -14 -10 t-11 -21.5t-9 -21.5l-3 -10v2q2 -10 2 -22.5v-22.5v-35q0 -39 9 -64q-2 -2 -3 -4t-3 -4q-18 23 -16.5 56.5t-2.5 62.5q-10 -33 -24.5 -65.5t-57.5 -32.5q-25 0 -53.5 10t-56.5 10q-16 0 -34 -3t-30 -3q-63 0 -90 51q-2 0 -2 -4t5 -22.5t5 -55.5q-8 -18 -12 -20q-2 0 -6 4v39 q0 41 -9.5 64.5t-9.5 56.5q4 0 6 2l-4 35q0 2 -6 8l-4 -2q-2 0 -2 -2l2 2q-4 0 -15.5 -27t-23.5 -59q-14 -37 -31 -88zM582 1237l4 2l12 -2v-4zM588 303v2q0 -4 4 -5t6 -1t4 2q-2 2 -3 4t-3 4l-4 2zM590 1192l14 -12l8 -2l125 34l-18 2q-14 -4 -35.5 -6t-42 -4t-35 -4 t-16.5 -8zM610 791q0 -78 10.5 -155t24.5 -155q25 -86 32 -165.5t19 -161.5q-2 -6 -8 -10.5t-8 -8.5l-2 -16q0 -2 4 -2l2 2q2 2 4 2q2 -2 3 -4t3 -4l-4 -15h6l15 54l8 4q4 -4 6 -3t2 -6q0 -10 -4 -21t-4 -20q0 -14 4 -18q0 12 4 12q8 -4 9 -10t3 -6q6 0 11 4 q-2 10 -8.5 20.5t-6.5 20.5q0 2 1 7t5 5t12.5 -21.5t18.5 -25.5q2 0 3 1t3 1v-2l-6 27q2 2 6 2q0 -2 10 -12q2 0 2.5 -2.5t2.5 -2.5l-2 5q0 2 3 8t3 16q0 8 -11 19h-2q-2 0 -4 2l-12 10q-4 8 -4 24q0 57 13.5 123t13.5 138q0 59 -5.5 116.5t-9.5 110.5q0 2 2 6t6 4 q8 0 16.5 -27.5t13.5 -64.5t8 -74t3 -53q0 -47 -7 -94t-17 -94l20 -5q16 0 33 11l2 30q2 20 3 39t1 37q0 29 -1 58.5t-1 58.5q0 18 4 48t10.5 59.5t12.5 51t12 21.5q4 -4 4 -12q0 -12 -6 -31q-6 -45 -8 -89t-2 -91q0 -41 1 -84t1 -84q0 -49 -7.5 -73.5t-11.5 -55.5 q8 -20 5 -35.5t14 -32.5h4l2 25l8 4l8 -14h4q4 4 5 12q0 8 -11 35q0 2 4 6q10 0 16.5 -16.5t6.5 -24.5q0 -10 -6 -18.5t-6 -14.5l16 2q4 4 4 8v5l-2 -2l8 4q2 -2 8 -2q10 10 11 22q0 20 -10.5 22.5t-10.5 12.5q0 6 4 6q8 -4 12.5 -6t6.5 -4l14 -37l8 -2l4 12q0 10 -10 27 l-27 10q-6 18 -6 37q0 29 8.5 57.5t18.5 57.5q61 217 61 426q0 78 -8 154.5t-24 148.5q-9 17 -9 78q-12 -12 -60 -26.5t-95 -25.5q-16 4 -30.5 4t-31.5 7q-31 2 -59.5 14t-50.5 20v-14q0 -23 -9.5 -46.5t-15.5 -43.5q-23 -59 -30 -115.5t-7 -115.5zM625 295q2 0 2 -1t2 -1v2 q2 2 2 4h-2h-2q-2 -2 -2 -4zM635 1165q0 -4 26.5 -14t61.5 -19.5t69.5 -16.5t51.5 -7h12q41 0 80 17.5t57 29.5l27 16q-4 2 -7 1t-7 4q-27 -4 -50.5 -15.5t-48.5 -11.5q-12 0 -21 4t-14 4q-10 0 -23 -8t-30 -8q-20 0 -35 12q-12 -4 -28 -4q-25 0 -47.5 8.5t-42.5 18.5 l-29 -2q-2 -4 -2 -9zM637 1343v3q0 2 2 4l61 4q27 2 57.5 -17.5t30.5 -50.5q0 -14 -6 -14q-4 0 -6 5t-8 5q-10 -4 -16.5 -7t-16.5 -3q-33 0 -59 26l-21 35l-16 6q-2 0 -2 4zM680 1331q0 -12 18 -31l21 -8q0 4 -1 6t-1 7q0 16 8 24l-43 4zM698 1464q4 -6 8.5 -16t7.5 -21.5 t6 -19.5l3 -8q2 0 3 19.5t5 31.5l6 -43l29 63h2l-27 -90h-12q-2 0 -2 2h-12q-2 0 -4 2zM731 1286q4 0 5 -1t5 -1q10 0 25 8q-2 4 -9.5 11.5t-17.5 21.5h-2q2 -2 2 -10t-4 -15.5t-4 -13.5zM793 190q0 -25 12 -36l33 4q12 55 12 92q0 10 -6 10l-45 -2q0 -18 -3 -34.5t-3 -33.5 zM799 1257q0 -2 2 -2l26 -8q2 0 2 1t2 1t2.5 -1t2.5 -1l8 -18q4 16 7 19t11 3h4q0 2 1 2t1 2v2l-39 7zM811 1163l31 4l-8 7h-3q-16 -6 -20 -11zM885 1286q0 23 22.5 44.5t55.5 31.5q6 0 13 -1t13 -1q13 0 29 6l8 -2v-8q0 -4 -8 -6q-35 -74 -74 -74q-10 0 -19.5 3t-19.5 5 q-4 0 -4 -7t-4 -7q-12 0 -12 16zM913 1296l19 -8q4 0 5 1t3 1h4q-8 14 -8 29q0 10 2 12q-16 -8 -20.5 -20.5t-4.5 -14.5zM922 1415v33h2l12 -62q0 -4 -6 -4q-8 16 -8 33zM942 1386q4 2 4 3v-3l-4 9l8 49h2v-51q-4 -4 -7 -2t-3 -2v-3zM948 1337q0 -4 6 -6l4 -39 q18 12 26.5 27.5t10.5 26.5h-28q-4 -4 -8.5 -4.5t-6.5 -2.5zM967 1389l20 47h2l-14 -43q-4 -4 -6 -2t-2 -2zM987 184q4 -12 14 -14q119 23 182.5 39t97.5 33.5t52.5 42t46.5 63.5q12 33 13 66q-1 24 -11 55l-2 -29q-37 -12 -72.5 -21t-66.5 -16.5t-51.5 -11.5t-24.5 -6 q-12 -2 -21 -3t-20 -1q-18 0 -22 2q-2 -2 -2 -4l28 -60q-4 -4 -6 -4t-6 4l-6 11q-2 2 -4 2q-20 -14 -50 -28.5t-52 -16.5q-12 -25 -13.5 -51.5t-3.5 -51.5zM991 1196l45 -16q12 2 13 8zM1014 338h33l10 6l28 4q0 12 -9 21.5t-9 36.5q0 33 5 51t12.5 28.5t18.5 17.5t23 17 l-12 33l-43 90zM1016 311h4q6 0 16 11q-6 0 -6 2q-14 -2 -14 -13zM1030 1208l39 -12l2 2q2 0 2 1t2 1q0 4 -2 6zM1094 422q0 -18 8 -21.5t20 -3.5q25 0 58.5 6.5t68.5 17.5t66 27.5t51 36.5v7q-17 26 -37 40l-16 -10q-10 -2 -21.5 -9t-33 -16.5t-57.5 -19.5t-93 -22 q-2 2 -8 2q-6 -4 -6 -6v-29zM1098 653q2 -6 8 -23.5t14 -36t15.5 -32.5t11.5 -14l2 2q6 43 26.5 75.5t36.5 71.5q25 43 53.5 93.5t65.5 105.5q57 86 98 185.5t41 234.5q0 27 -3 58.5t-9 63t-17 60.5t-30 49l-8 8q-2 2 -2 5q0 -2 2 -5q-16 16 -33 17h-4q-29 -10 -39 -25.5 t-10 -40.5q0 -14 6 -32q53 -102 53 -211q0 -68 -20.5 -133.5t-52 -126t-69.5 -116t-71 -100.5q-16 -33 -36.5 -62.5t-28.5 -70.5zM1100 475q4 -4 8 -4q14 0 41 7t41 18l-6 6l-8 -4l-9 10l9 14h-5l-20 -10zM1169 1202q0 -2 2 -2t2.5 -1t4.5 -1l65 -10l-69 6q-2 2 -3 6 q0 2 -2 2zM1198 500q0 -4 4 -4l25 10q-4 4 -5 2t-1 2q-4 0 -5.5 -3t-5.5 -3t-4 3t-2 3q-6 -6 -6 -10zM1227 524l8 11q0 2 2 2h6q2 -2 2 -9q0 -6 -5 -10t-5 -8v2q2 0 4 -1t6 -1q16 8 37 16.5t33 20.5h-45l-35 -2q-4 -12 -8 -13v5q0 -4 1 -6.5t1 -4.5t-2 -2z" />
<glyph unicode="&#xa5;" horiz-adv-x="1609" d="M41 1507v60h553v-62q-18 0 -30.5 -15t-12.5 -42q0 -37 22 -70l295 -413q72 102 148 206.5t147 206.5q16 25 26.5 52.5t12.5 46.5q0 29 -24 28v62h387l-2 -62q-45 -6 -93.5 -19t-94.5 -32.5t-85 -47.5t-63 -63l-301 -423v-78h168v-121h-166v-121h166v-121h-166v-321 q0 -16 12 -27.5t32.5 -20t44 -11.5t46.5 -3v-61h-555v61q20 0 45 3t45 11.5t33.5 19.5t13.5 28v321h-151v121h151v121h-151v121h151l2 20q-86 121 -172 241l-172 240q-47 66 -115.5 107t-146.5 57z" />
<glyph unicode="&#xa6;" horiz-adv-x="372" d="M92 -41v692h178v-692h-178zM92 1001v697h178v-697h-178z" />
<glyph unicode="&#xa7;" horiz-adv-x="1705" d="M47 762q2 45 15.5 88t50.5 80t101.5 63.5t168.5 38.5q-47 16 -89 34.5t-83 41.5q-113 61 -113 211q0 39 13.5 89t57.5 93t127 73t220 30q88 0 139.5 -9.5t85 -20.5t63.5 -20.5t79 -9.5q39 0 73.5 11.5t51.5 39.5h67l-149 -358h-54q-20 59 -47.5 115.5t-68.5 100.5 t-99.5 70.5t-140.5 26.5q-39 0 -74.5 -6t-64.5 -20.5t-46.5 -37t-17.5 -52.5q0 -41 36 -70t92.5 -50.5t126 -41t139.5 -41.5q70 -23 140.5 -53.5t126.5 -73.5t91 -103.5t35 -140.5q-2 -45 -15.5 -89t-50.5 -81t-102.5 -63.5t-169.5 -38.5q57 -18 108.5 -41t91 -54.5 t63.5 -76.5t24 -113q0 -41 -13.5 -90t-57.5 -92t-127 -73t-220 -30q-90 0 -140.5 9.5t-84 20.5t-64.5 20.5t-80 9.5q-39 0 -72.5 -11.5t-50.5 -39.5h-67l149 358h53q20 -61 48 -117.5t69 -100.5t98.5 -69.5t141.5 -25.5q39 0 74.5 6t64.5 19.5t46.5 36t17.5 54.5 q0 39 -35 67t-90.5 50.5t-126 43t-142.5 42.5q-72 23 -142.5 53.5t-125.5 74.5t-90 103.5t-35 139.5zM315 854q0 -41 13.5 -64.5t40.5 -50.5q35 -35 90 -54t108 -38h33q47 0 89 7.5t74 22.5t50 37.5t18 53.5q0 51 -24.5 84t-62 55.5t-83 36.5t-88.5 29q-8 2 -26 2 q-47 0 -89 -7t-74 -22.5t-50.5 -38t-18.5 -53.5z" />
<glyph unicode="&#xa8;" horiz-adv-x="776" d="M158 1446q0 45 13 86t36.5 70.5t54.5 47t68 17.5t67.5 -17.5t54 -47t37 -70.5t13.5 -86q0 -47 -13.5 -87t-37 -69.5t-54 -47t-67.5 -17.5t-68 17.5t-54.5 47t-36.5 69.5t-13 87zM682 1446q0 45 13.5 86t37 70.5t54 47t67.5 17.5t67.5 -17.5t54 -47t37 -70.5t13.5 -86 q0 -47 -13.5 -87t-37 -69.5t-54 -47t-67.5 -17.5t-67.5 17.5t-54 47t-37 69.5t-13.5 87z" />
<glyph unicode="&#xa9;" horiz-adv-x="1589" d="M-23 834q0 158 59.5 297t163 243.5t243.5 166t302 61.5q160 0 300.5 -60.5t245 -165t165 -244t60.5 -298.5q0 -160 -60.5 -300.5t-165 -245t-245 -165t-300.5 -60.5t-300 60.5t-244.5 165t-164 245t-59.5 300.5zM45 834q0 -139 52.5 -266.5t146.5 -224.5t222 -154.5 t279 -57.5q143 0 270.5 54.5t223.5 148.5t152.5 223t56.5 277q0 143 -56.5 271t-150.5 222q-207 207 -496 207q-145 0 -273 -55.5t-223 -150.5t-149.5 -223t-54.5 -271zM258 831q0 41 11.5 98.5t35 118t60 120t86 106.5t113 75.5t141.5 28.5q57 0 99 -14t73.5 -31.5t55 -32 t44.5 -14.5q27 0 45 12.5t41 55.5l4 12h57h37l-141 -268l-6 -13h-15h-49l-6 15q-20 53 -41.5 88t-49.5 56.5t-66.5 30.5t-94.5 11q-59 0 -99 -26.5t-63.5 -71.5t-34 -105.5t-10.5 -128.5q0 -88 12.5 -157.5t20.5 -102.5q14 -59 41 -111.5t62.5 -91t81 -60t96.5 -21.5 q76 0 139 52t100 148l6 15h64l33 2l-13 -33q-59 -143 -169.5 -226t-241.5 -83q-96 0 -179 43t-145.5 117.5t-98.5 174t-36 211.5z" />
<glyph unicode="&#xaa;" horiz-adv-x="1171" d="M35 870q0 37 12 79t39 81t70 71t102 46q174 43 289 55q109 12 108 193q0 33 -12 65.5t-32.5 58t-47 41t-55.5 15.5q-53 0 -75.5 -32t-33.5 -79q-20 -86 -67 -123.5t-99 -37.5q-49 0 -89 30.5t-40 79.5q0 37 32 76t82 69.5t114.5 50t130.5 19.5q94 0 180 -45t150.5 -115.5 t102.5 -159.5t38 -178v-149q0 -154 42 -226.5t163 -72.5v-61q-297 0 -385 73q-6 2 -13.5 2h-13.5q-33 0 -50.5 -14t-48 -31.5t-90 -32t-176.5 -14.5q-102 0 -165.5 23.5t-99.5 61.5t-49 86t-13 95zM285 973q0 -82 19.5 -141.5t48 -97.5t62.5 -55t62 -17q37 0 72 17t62.5 47 t44 69t16.5 82v342q-23 -31 -61 -47.5t-81 -26.5t-87 -19.5t-78.5 -27t-57 -46t-22.5 -79.5z" />
<glyph unicode="&#xab;" horiz-adv-x="1044" d="M39 610l381 379h100l-168 -379l168 -377h-100zM494 610l380 379h101l-168 -379l168 -377h-101z" />
<glyph unicode="&#xac;" horiz-adv-x="835" d="M117 729v121h602v-275h-103v154h-499z" />
<glyph unicode="&#xad;" horiz-adv-x="835" d="M117 729v121h600v-121h-600z" />
<glyph unicode="&#xae;" horiz-adv-x="1589" d="M-23 834q0 158 59.5 297t163 243.5t243.5 166t302 61.5q160 0 300.5 -60.5t245 -165t165 -244t60.5 -298.5q0 -160 -60.5 -300.5t-165 -245t-245 -165t-300.5 -60.5t-300 60.5t-244.5 165t-164 245t-59.5 300.5zM45 834q0 -139 52.5 -266.5t146.5 -224.5t222 -154.5 t279 -57.5q143 0 270.5 54.5t223.5 148.5t152.5 223t56.5 277q0 143 -56.5 271t-150.5 222q-207 207 -496 207q-145 0 -273 -55.5t-223 -150.5t-149.5 -223t-54.5 -271zM317 287v63v25h25q14 0 41 11t27 22v843q0 4 -24 11.5t-44 7.5h-25v63v23h66h223h254 q47 -2 100.5 -16.5t98.5 -48.5t74.5 -90t29.5 -142q0 -285 -239 -332q41 -31 59 -77t31.5 -89t33 -72.5t62.5 -29.5q19 0 33 20q16 29 16 76v25l64 -7l20 -2v-20q0 -129 -42 -203t-152 -74q-88 0 -151.5 60.5t-82.5 161.5q-6 45 -13 86t-18.5 71.5t-30 49t-51.5 18.5h-73 l-2 -313q0 -10 26.5 -21.5t40.5 -11.5h25v-66v-22h-377h-25zM631 811h137h41q141 18 141 182q0 16 -1 30.5t-3 29.5v2q-8 78 -22.5 121t-41 64.5t-67.5 25.5t-102 4h-82v-459z" />
<glyph unicode="&#xb0;" horiz-adv-x="583" d="M14 1370q0 57 20.5 108.5t56.5 90.5t84.5 61.5t103.5 22.5q53 0 101 -22.5t84 -61.5t57.5 -90.5t21.5 -108.5q0 -59 -20.5 -111.5t-56.5 -90.5t-84 -60.5t-103 -22.5t-104.5 21.5t-84.5 60.5t-55.5 91.5t-20.5 111.5zM184 1450q0 -63 11.5 -120.5t30 -101.5t41 -69.5 t44.5 -25.5q25 0 39.5 37.5t14.5 101.5q0 59 -11.5 115.5t-29 100.5t-39 71.5t-39.5 31.5h-6q-27 0 -41.5 -39t-14.5 -102z" />
<glyph unicode="&#xb1;" d="M61 242v120h601v-120h-601zM61 729v121h238v240h121v-240h242v-121h-242v-240h-121v240h-238z" />
<glyph unicode="&#xb2;" horiz-adv-x="1110" d="M164 1337q0 57 31.5 105.5t81 84.5t108 55.5t111.5 19.5q147 0 254 -109h-2q106 -104 106 -262q0 -219 -127 -275q-125 -55 -238 -79q-4 -2 -10 -3q53 -10 119 -27.5t119 -19.5q31 0 31 74l83 4q4 -45 6.5 -78.5t2.5 -56.5q0 -111 -31 -153t-82 -42q-43 0 -95 24t-106 52 h2q-51 27 -98 48.5t-86 21.5q-29 0 -48.5 -20.5t-19.5 -75.5v-47h-77q-6 14 -10.5 39.5t-4.5 52.5q0 119 22.5 178t76.5 82l-2 -2q55 25 118.5 38t116.5 38.5t90 75.5t39 151q0 16 -10 58t-31.5 86t-55.5 78t-79 34q-31 0 -59.5 -12.5t-28.5 -22.5l2 -2q16 -27 26.5 -54.5 t10.5 -58.5q0 -59 -37 -102t-92 -43q-53 0 -90 43t-37 102z" />
<glyph unicode="&#xb3;" horiz-adv-x="1161" d="M154 1303l260 348l88 -66q-6 -6 -6 -12t8 -6l366 4v-174l-184 -115q92 -33 150.5 -116t58.5 -251q0 -80 -29.5 -147.5t-79 -116.5t-115 -75.5t-136.5 -26.5q-55 0 -114 20.5t-108 55t-79.5 84t-30.5 104.5q0 59 36.5 100t92.5 41q53 0 90 -41t37 -100q0 -70 -29 -92l2 4 q-6 -6 -6 -12q0 -23 29 -41h-2q10 -6 26.5 -7t34.5 -1h23q18 0 43.5 22.5t48 58t39 80.5t16.5 93q0 143 -39 196t-110 53q-72 0 -156 -65l-76 76q33 25 61.5 45t51.5 30h-2q37 20 55 31.5t31.5 20t32 19.5t55.5 32h-99.5t-90.5 -9.5t-86 -33t-85 -70.5z" />
<glyph unicode="&#xb4;" horiz-adv-x="555" d="M0 1339l117 332h256l-271 -340z" />
<glyph unicode="&#xb5;" horiz-adv-x="1484" d="M29 -532q119 0 160.5 72.5t43.5 226.5l7 802q-2 14 -8.5 40t-16.5 50.5t-24.5 43t-32.5 18.5q-31 0 -84 -35v12q-4 -2 -7.5 -4t-7.5 -4v53l385 299h60v-4h14v-632q14 -129 76.5 -214.5t185.5 -85.5q84 0 129 52.5t45 132.5v278q-2 18 -8 45t-18.5 51.5t-29.5 42t-38 17.5 q-35 0 -86 -35v53l385 299h60v-647q0 -78 9 -134t32.5 -93t65.5 -54.5t108 -17.5v-61h-418q0 47 -55 47q-35 0 -91 -19q-129 -43 -241 -43q-33 0 -60.5 1.5t-50.5 5.5v-260q0 -78 9.5 -134.5t33 -93.5t64.5 -54t106 -17v-62h-702v62z" />
<glyph unicode="&#xb6;" horiz-adv-x="1509" d="M45 1135q0 88 21.5 166.5t59.5 137t88 92.5t108 34l1116 2v-62q-51 0 -97.5 -15t-46.5 -46v-1262q0 -20 15.5 -35.5t37 -26.5t47 -17.5t44.5 -6.5v-61h-561v61q14 0 37.5 6.5t45 17.5t37 27.5t15.5 34.5v1262q0 14 -13.5 26.5t-33 19.5t-44 11t-44.5 4h-101 q-51 0 -97 -15t-46 -46v-1262q0 -20 15.5 -35.5t37 -26.5t47 -17.5t43.5 -6.5v-61h-561v61q14 0 37.5 6.5t45 17.5t37 27.5t15.5 34.5v525q-10 -2 -28 -2q-57 0 -107.5 33.5t-88.5 92t-59.5 136t-21.5 168.5z" />
<glyph unicode="&#xb7;" horiz-adv-x="430" d="M35 840q0 45 13 86t37 70.5t54.5 47t67.5 17.5t67.5 -17.5t54 -47t37 -70.5t13.5 -86q0 -47 -13.5 -87t-37 -70t-54 -47.5t-67.5 -17.5t-67.5 17.5t-54.5 47.5t-37 70t-13 87z" />
<glyph unicode="&#xb8;" horiz-adv-x="483" d="M57 -274q0 53 20.5 103t53.5 94t75 78t85 54l61 -30q-37 -18 -61.5 -50t-24.5 -75q0 -70 92 -131q61 -41 62 -117q0 -78 -44 -128t-112 -50q-41 0 -77.5 20.5t-65.5 55t-46.5 80.5t-17.5 96z" />
<glyph unicode="&#xb9;" horiz-adv-x="710" d="M96 1155v117l289 303h84v-895q0 -6 31.5 -10t56.5 -4v-115h-377v115q18 0 49 4t31 10v565q0 16 -8 17q-10 0 -27.5 -10.5t-39 -27t-45 -35t-44.5 -34.5z" />
<glyph unicode="&#xba;" horiz-adv-x="1042" d="M51 1104q0 104 38 196.5t102.5 163t150.5 111.5t184 41t184.5 -41t152 -111.5t103.5 -164t38 -195.5q0 -104 -38 -196.5t-102.5 -163t-151.5 -111.5t-186 -41q-98 0 -185 41t-151.5 110.5t-101.5 162.5t-37 198zM348 1280q0 -113 22.5 -225.5t57.5 -203.5t80 -147.5 t90 -56.5t76 76t31 201q0 106 -21.5 215.5t-55.5 200t-76 149.5t-83 67h-12q-47 0 -78 -75.5t-31 -200.5z" />
<glyph unicode="&#xbb;" horiz-adv-x="1044" d="M39 233l168 379l-168 377h100l381 -377l-381 -379h-100zM494 233l168 379l-168 377h100l381 -377l-381 -379h-100z" />
<glyph unicode="&#xbc;" horiz-adv-x="1675" d="M96 1155v117l289 303h84v-895q0 -6 31.5 -10t56.5 -4v-115h-377v115q18 0 49 4t31 10v565q0 16 -8 17q-10 0 -27.5 -10.5t-39 -27t-45 -35t-44.5 -34.5zM246 -59l1110 1685l123 -51l-1110 -1634h-123zM856 260l358 758h172v-524h62q6 0 11 9t9.5 22.5t7.5 27.5t3 27h84 v-402h-84q0 8 -3 22.5t-7.5 28t-9.5 22.5t-11 9h-62v-131q0 -2 9.5 -4t23 -4t27.5 -3t27 -1v-115h-377v115q18 0 50 4t32 8v131h-322zM1075 494h103v217q-25 -53 -49.5 -103.5t-53.5 -113.5z" />
<glyph unicode="&#xbd;" horiz-adv-x="1822" d="M96 1155v117l289 303h84v-895q0 -6 31.5 -10t56.5 -4v-115h-377v115q18 0 49 4t31 10v565q0 16 -8 17q-10 0 -27.5 -10.5t-39 -27t-45 -35t-44.5 -34.5zM246 -59l1110 1685l123 -51l-1110 -1634h-123zM1096 782q0 57 31.5 105.5t80.5 84.5t107.5 55.5t111.5 19.5 q147 0 254 -109h-2q106 -104 107 -262q0 -219 -127 -275q-125 -55 -238 -79q-4 -2 -10 -3q53 -10 118.5 -27.5t119.5 -19.5q31 0 30 74l84 4q4 -45 6.5 -78.5t2.5 -56.5q0 -111 -31 -153t-82 -42q-43 0 -95.5 24t-105.5 52h2q-51 27 -98 48.5t-86 21.5q-29 0 -48.5 -20.5 t-19.5 -75.5v-47h-78q-6 14 -10 39.5t-4 52.5q0 119 22.5 178t75.5 82l-2 -2q55 25 119 38t117 38.5t90 75.5t39 151q0 16 -10.5 58t-32 86t-55 78t-78.5 34q-31 0 -59.5 -12.5t-28.5 -22.5l2 -2q16 -27 26.5 -54.5t10.5 -58.5q0 -59 -37 -102t-92 -43q-53 0 -90 43t-37 102 z" />
<glyph unicode="&#xbe;" horiz-adv-x="1859" d="M98 1303l260 348l88 -66q-6 -6 -6 -12t9 -6l366 4v-174l-184 -115q92 -33 150.5 -116t58.5 -251q0 -80 -30 -147.5t-79 -116.5t-114.5 -75.5t-137.5 -26.5q-55 0 -113.5 20.5t-107.5 55t-80 84t-31 104.5q0 59 37 100t92 41q53 0 90 -41t37 -100q0 -70 -28 -92l2 4 q-6 -6 -6 -12q0 -23 28 -41h-2q10 -6 26.5 -7t35.5 -1h22q18 0 44 22.5t48.5 58t39 80.5t16.5 93q0 143 -39 196t-111 53t-155 -65l-76 76q33 25 61.5 45t50.5 30h-2q37 20 55.5 31.5t32 20t32 19.5t54.5 32h-99t-90 -9.5t-86 -33t-85 -70.5zM414 -59l1110 1685h123 l-1110 -1685h-123zM1044 260l359 758h172v-524h61q6 0 11.5 9t9.5 22.5t7 27.5t3 27h84v-402h-84q0 8 -3 22.5t-7 28t-9.5 22.5t-11.5 9h-61v-131q0 -2 9 -4t22.5 -4t28 -3t26.5 -1v-115h-377v115q18 0 50 4t32 8v131h-322zM1264 494h102v217q-25 -53 -49.5 -103.5 t-52.5 -113.5z" />
<glyph unicode="&#xbf;" horiz-adv-x="1249" d="M82 440q0 82 28.5 133.5t73.5 85t99.5 54t105.5 39.5q41 14 81 32.5t70.5 43t50 56t19.5 74.5q0 29 -7 61t-19 71h209q6 -47 6 -82q0 -61 -16.5 -101.5t-42 -68t-57.5 -46t-60 -34.5q-35 -20 -73 -42t-79 -50q-82 -56 -82 -232q0 -86 19.5 -155.5t55.5 -119.5t83 -77 t102 -27q80 0 129 7.5t77 20.5t38 30.5t10 38.5q0 23 -14.5 51t-30.5 58t-30.5 57.5t-14.5 50.5q0 37 15.5 67.5t42 53t61.5 36t76 13.5q39 0 74.5 -13.5t62 -36t42 -53t15.5 -67.5q0 -16 -6 -37h2q-23 -74 -74 -137.5t-122.5 -110.5t-161.5 -73.5t-191 -26.5 q-117 0 -219 35.5t-180 97t-123 144.5t-45 179zM518 1446q0 45 13.5 86t37 70.5t54 47t67.5 17.5t67.5 -17.5t54.5 -47t37 -70.5t13 -86q0 -47 -13 -87t-37 -69.5t-54.5 -47t-67.5 -17.5t-67.5 17.5t-54 47t-37 69.5t-13.5 87z" />
<glyph unicode="&#xc0;" horiz-adv-x="1716" d="M27 33v59q31 0 62.5 4t61 14.5t52 28t33.5 41.5l563 1387h75l564 -1387q20 -51 90.5 -69.5t157.5 -18.5v-59h-742v59q61 0 113.5 18.5t52.5 53.5q0 4 -4 16l-47 113q-12 29 -41 63.5t-100 51.5q-106 27 -211 26q-51 0 -103.5 -7t-99.5 -19q-53 -16 -89 -54.5t-36 -58.5 l-47 -115q-4 -12 -4 -18q0 -18 15 -30.5t40 -22t53.5 -13.5t52.5 -4v-59h-462zM438 440q68 27 137.5 41.5t141.5 14.5t141.5 -14.5t140.5 -41.5q-74 180 -140 346t-140 347zM514 1995h256l117 -332l-103 -8z" />
<glyph unicode="&#xc1;" horiz-adv-x="1716" d="M27 33v59q31 0 62.5 4t61 14.5t52 28t33.5 41.5l563 1387h75l564 -1387q20 -51 90.5 -69.5t157.5 -18.5v-59h-742v59q61 0 113.5 18.5t52.5 53.5q0 4 -4 16l-47 113q-12 29 -41 63.5t-100 51.5q-106 27 -211 26q-51 0 -103.5 -7t-99.5 -19q-53 -16 -89 -54.5t-36 -58.5 l-47 -115q-4 -12 -4 -18q0 -18 15 -30.5t40 -22t53.5 -13.5t52.5 -4v-59h-462zM438 440q68 27 137.5 41.5t141.5 14.5t141.5 -14.5t140.5 -41.5q-74 180 -140 346t-140 347zM795 1634l117 332h256l-271 -340z" />
<glyph unicode="&#xc2;" horiz-adv-x="1716" d="M27 33v59q31 0 62.5 4t61 14.5t52 28t33.5 41.5l563 1387h75l564 -1387q20 -51 90.5 -69.5t157.5 -18.5v-59h-742v59q61 0 113.5 18.5t52.5 53.5q0 4 -4 16l-47 113q-12 29 -41 63.5t-100 51.5q-106 27 -211 26q-51 0 -103.5 -7t-99.5 -19q-53 -16 -89 -54.5t-36 -58.5 l-47 -115q-4 -12 -4 -18q0 -18 15 -30.5t40 -22t53.5 -13.5t52.5 -4v-59h-462zM438 440q68 27 137.5 41.5t141.5 14.5t141.5 -14.5t140.5 -41.5q-74 180 -140 346t-140 347zM633 1559v88l205 207l205 -207v-88l-205 90z" />
<glyph unicode="&#xc3;" horiz-adv-x="1716" d="M27 33v59q31 0 62.5 4t61 14.5t52 28t33.5 41.5l563 1387h75l564 -1387q20 -51 90.5 -69.5t157.5 -18.5v-59h-742v59q61 0 113.5 18.5t52.5 53.5q0 4 -4 16l-47 113q-12 29 -41 63.5t-100 51.5q-106 27 -211 26q-51 0 -103.5 -7t-99.5 -19q-53 -16 -89 -54.5t-36 -58.5 l-47 -115q-4 -12 -4 -18q0 -18 15 -30.5t40 -22t53.5 -13.5t52.5 -4v-59h-462zM438 440q68 27 137.5 41.5t141.5 14.5t141.5 -14.5t140.5 -41.5q-74 180 -140 346t-140 347zM463 1739q0 37 17.5 66.5t44 51t57 34t59.5 12.5q51 0 114.5 -28t116.5 -58q33 -20 66 -43 t62.5 -41.5t56 -29.5t45.5 -11q29 0 45 18.5t16 40.5q0 25 -14 53.5t-35 53.5l27 22q51 -61 72.5 -109.5t21.5 -89.5q0 -43 -16.5 -75.5t-40 -54t-51 -33t-52.5 -11.5q-43 0 -100 31t-115.5 69t-112 68.5t-90.5 30.5q-27 0 -57.5 -18.5t-30.5 -53.5q0 -55 60 -120l-35 -25 q-74 82 -102.5 144.5t-28.5 105.5z" />
<glyph unicode="&#xc4;" horiz-adv-x="1716" d="M27 33v59q31 0 62.5 4t61 14.5t52 28t33.5 41.5l563 1387h75l564 -1387q20 -51 90.5 -69.5t157.5 -18.5v-59h-742v59q61 0 113.5 18.5t52.5 53.5q0 4 -4 16l-47 113q-12 29 -41 63.5t-100 51.5q-106 27 -211 26q-51 0 -103.5 -7t-99.5 -19q-53 -16 -89 -54.5t-36 -58.5 l-47 -115q-4 -12 -4 -18q0 -18 15 -30.5t40 -22t53.5 -13.5t52.5 -4v-59h-462zM422 1643q0 45 13 86t36.5 70.5t54.5 47t68 17.5t67.5 -17.5t54 -47t37 -70.5t13.5 -86q0 -47 -13.5 -87t-37 -69.5t-54 -47t-67.5 -17.5t-68 17.5t-54.5 47t-36.5 69.5t-13 87zM438 440 q68 27 137.5 41.5t141.5 14.5t141.5 -14.5t140.5 -41.5q-74 180 -140 346t-140 347zM946 1643q0 45 13.5 86t37 70.5t54 47t67.5 17.5t67.5 -17.5t54 -47t37 -70.5t13.5 -86q0 -47 -13.5 -87t-37 -69.5t-54 -47t-67.5 -17.5t-67.5 17.5t-54 47t-37 69.5t-13.5 87z" />
<glyph unicode="&#xc5;" horiz-adv-x="1716" d="M27 33v59q31 0 62.5 4t61 14.5t52 28t33.5 41.5l563 1387h75l564 -1387q20 -51 90.5 -69.5t157.5 -18.5v-59h-742v59q61 0 113.5 18.5t52.5 53.5q0 4 -4 16l-47 113q-12 29 -41 63.5t-100 51.5q-106 27 -211 26q-51 0 -103.5 -7t-99.5 -19q-53 -16 -89 -54.5t-36 -58.5 l-47 -115q-4 -12 -4 -18q0 -18 15 -30.5t40 -22t53.5 -13.5t52.5 -4v-59h-462zM438 440q68 27 137.5 41.5t141.5 14.5t141.5 -14.5t140.5 -41.5q-74 180 -140 346t-140 347zM643 1739q0 41 14.5 76.5t40 63.5t59 43t72.5 15q37 0 71 -15t59.5 -43t41 -63.5t15.5 -76.5 q0 -43 -15.5 -79t-41 -63.5t-59.5 -43t-71 -15.5q-39 0 -72.5 15.5t-59 43t-40 63.5t-14.5 79zM764 1798q0 -45 8 -86t20.5 -72.5t28 -50t31.5 -18.5q18 0 27.5 27.5t9.5 72.5q0 41 -7.5 80t-19.5 69.5t-26.5 50t-28.5 23.5h-6q-16 0 -26.5 -26.5t-10.5 -69.5z" />
<glyph unicode="&#xc6;" horiz-adv-x="2238" d="M23 92l21 6q22 6 49.5 18.5t56 29t45.5 34.5l862 1069v310h250l456 8q47 0 85 14t38 37q0 8 -8 16l70 4l233 -288l-51 -41q-33 33 -78 68.5t-94 63t-98.5 46t-90.5 18.5h-452v-573h387q55 0 103 33.5t89 76.5l50 -41q-20 -25 -31.5 -39t-32 -39.5t-58.5 -72.5t-110 -137 l-49 39q29 29 29 79q0 37 -25 37h-360v-772h460q41 0 90.5 17.5t98.5 45t94 63.5t78 71l51 -41l-233 -287l-70 4q8 8 8 17q0 20 -38 34.5t-85 14.5h-653q-59 -2 -120.5 -2h-123.5v59q33 0 68 6t63.5 18.5t47 29t18.5 34.5l-2 113q0 14 -2 30.5t-12.5 32t-31 28.5t-57.5 24 q-51 14 -101 19t-103 7q-53 0 -106.5 -7t-106.5 -19q-82 -23 -119 -54.5t-60 -58.5l-94 -115q-12 -16 -12 -28q0 -14 12.5 -25.5t33 -19t44 -11.5t45.5 -4v-59h-366v59h-2zM473 432q174 63 318 64q74 0 141 -16.5t131 -47.5l-4 725z" />
<glyph unicode="&#xc7;" horiz-adv-x="1343" d="M49 803q0 150 50.5 291t138.5 250.5t203.5 176t248.5 66.5q182 0 258 -71q37 -37 76 -52.5t84 -15.5q39 0 74 30.5t67 88.5h80l-186 -353h-70q-33 82 -67.5 140.5t-80.5 94.5t-108.5 52.5t-150.5 16.5q-92 0 -154.5 -45.5t-100.5 -118t-54.5 -164.5t-16.5 -189 q0 -209 39 -369.5t105.5 -270t156.5 -166t193 -56.5q109 0 212 78t168 242l91 2q-39 -92 -99.5 -173t-137.5 -140.5t-167 -94.5t-190 -35q-141 0 -262 63.5t-210 171t-139.5 250t-50.5 300.5zM501 -274q0 53 20.5 103t53.5 94t75 78t85 54l61 -30q-37 -18 -61.5 -50 t-24.5 -75q0 -70 92 -131q61 -41 62 -117q0 -78 -44 -128t-112 -50q-41 0 -77.5 20.5t-65.5 55t-46.5 80.5t-17.5 96z" />
<glyph unicode="&#xc8;" horiz-adv-x="1359" d="M33 35v61q14 0 37.5 6.5t45 17.5t37 27.5t15.5 34.5v1262q0 14 -13.5 26.5t-33 19.5t-44 11t-44.5 4v62h868q45 0 80 14t35 35q0 10 -8 18l86 4l233 -288l-61 -47q-37 39 -84 75.5t-96.5 64t-95.5 45t-83 17.5h-456v-573h391q51 0 98 34.5t92 82.5l60 -48 q-16 -20 -33 -39.5t-42.5 -50t-63.5 -79t-99 -125.5l-59 45q27 27 26 86q0 31 -14 30h-356v-772h456q37 0 83 16.5t94.5 44t95.5 64.5t86 78l61 -47l-233 -287l-86 4q8 8 8 17q0 20 -35 34.5t-80 14.5h-868zM352 1980h256l117 -332l-103 -8z" />
<glyph unicode="&#xc9;" horiz-adv-x="1359" d="M33 35v61q14 0 37.5 6.5t45 17.5t37 27.5t15.5 34.5v1262q0 14 -13.5 26.5t-33 19.5t-44 11t-44.5 4v62h868q45 0 80 14t35 35q0 10 -8 18l86 4l233 -288l-61 -47q-37 39 -84 75.5t-96.5 64t-95.5 45t-83 17.5h-456v-573h391q51 0 98 34.5t92 82.5l60 -48 q-16 -20 -33 -39.5t-42.5 -50t-63.5 -79t-99 -125.5l-59 45q27 27 26 86q0 31 -14 30h-356v-772h456q37 0 83 16.5t94.5 44t95.5 64.5t86 78l61 -47l-233 -287l-86 4q8 8 8 17q0 20 -35 34.5t-80 14.5h-868zM631 1658l117 332h256l-271 -340z" />
<glyph unicode="&#xca;" horiz-adv-x="1359" d="M33 35v61q14 0 37.5 6.5t45 17.5t37 27.5t15.5 34.5v1262q0 14 -13.5 26.5t-33 19.5t-44 11t-44.5 4v62h868q45 0 80 14t35 35q0 10 -8 18l86 4l233 -288l-61 -47q-37 39 -84 75.5t-96.5 64t-95.5 45t-83 17.5h-456v-573h391q51 0 98 34.5t92 82.5l60 -48 q-16 -20 -33 -39.5t-42.5 -50t-63.5 -79t-99 -125.5l-59 45q27 27 26 86q0 31 -14 30h-356v-772h456q37 0 83 16.5t94.5 44t95.5 64.5t86 78l61 -47l-233 -287l-86 4q8 8 8 17q0 20 -35 34.5t-80 14.5h-868zM418 1597v86l182 201l182 -201v-86l-182 88z" />
<glyph unicode="&#xcb;" horiz-adv-x="1359" d="M33 35v61q14 0 37.5 6.5t45 17.5t37 27.5t15.5 34.5v1262q0 14 -13.5 26.5t-33 19.5t-44 11t-44.5 4v62h868q45 0 80 14t35 35q0 10 -8 18l86 4l233 -288l-61 -47q-37 39 -84 75.5t-96.5 64t-95.5 45t-83 17.5h-456v-573h391q51 0 98 34.5t92 82.5l60 -48 q-16 -20 -33 -39.5t-42.5 -50t-63.5 -79t-99 -125.5l-59 45q27 27 26 86q0 31 -14 30h-356v-772h456q37 0 83 16.5t94.5 44t95.5 64.5t86 78l61 -47l-233 -287l-86 4q8 8 8 17q0 20 -35 34.5t-80 14.5h-868zM193 1849q0 45 13 86t36.5 70.5t54.5 47t68 17.5t67.5 -17.5 t54 -47t37 -70.5t13.5 -86q0 -47 -13.5 -87t-37 -69.5t-54 -47t-67.5 -17.5t-68 17.5t-54.5 47t-36.5 69.5t-13 87zM717 1849q0 45 13.5 86t37 70.5t54 47t67.5 17.5t67.5 -17.5t54 -47t37 -70.5t13.5 -86q0 -47 -13.5 -87t-37 -69.5t-54 -47t-67.5 -17.5t-67.5 17.5t-54 47 t-37 69.5t-13.5 87z" />
<glyph unicode="&#xcc;" horiz-adv-x="618" d="M-2 1990h256l117 -332l-103 -8zM37 35v61q14 0 37.5 6.5t45 17.5t37 27.5t15.5 34.5v1262q0 14 -13.5 26.5t-33 19.5t-44 11t-44.5 4v62h561v-62q-51 0 -97 -15t-46 -46v-1262q0 -20 15 -35.5t36.5 -26.5t47.5 -17.5t44 -6.5v-61h-561z" />
<glyph unicode="&#xcd;" horiz-adv-x="618" d="M37 35v61q14 0 37.5 6.5t45 17.5t37 27.5t15.5 34.5v1262q0 14 -13.5 26.5t-33 19.5t-44 11t-44.5 4v62h561v-62q-51 0 -97 -15t-46 -46v-1262q0 -20 15 -35.5t36.5 -26.5t47.5 -17.5t44 -6.5v-61h-561zM262 1628l117 332h256l-271 -340z" />
<glyph unicode="&#xce;" horiz-adv-x="618" d="M37 35v61q14 0 37.5 6.5t45 17.5t37 27.5t15.5 34.5v1262q0 14 -13.5 26.5t-33 19.5t-44 11t-44.5 4v62h561v-62q-51 0 -97 -15t-46 -46v-1262q0 -20 15 -35.5t36.5 -26.5t47.5 -17.5t44 -6.5v-61h-561zM96 1612v88l205 207l205 -207v-88l-205 90z" />
<glyph unicode="&#xcf;" horiz-adv-x="618" d="M-123 1845q0 45 13 86t36.5 70.5t54.5 47t68 17.5t67.5 -17.5t54 -47t37 -70.5t13.5 -86q0 -47 -13.5 -87t-37 -69.5t-54 -47t-67.5 -17.5t-68 17.5t-54.5 47t-36.5 69.5t-13 87zM37 35v61q14 0 37.5 6.5t45 17.5t37 27.5t15.5 34.5v1262q0 14 -13.5 26.5t-33 19.5 t-44 11t-44.5 4v62h561v-62q-51 0 -97 -15t-46 -46v-1262q0 -20 15 -35.5t36.5 -26.5t47.5 -17.5t44 -6.5v-61h-561zM401 1845q0 45 13.5 86t37 70.5t54 47t67.5 17.5t67.5 -17.5t54 -47t37 -70.5t13.5 -86q0 -47 -13.5 -87t-37 -69.5t-54 -47t-67.5 -17.5t-67.5 17.5 t-54 47t-37 69.5t-13.5 87z" />
<glyph unicode="&#xd0;" horiz-adv-x="1402" d="M37 774v76h141v594q0 14 -13 26.5t-32.5 19.5t-44.5 11t-45 4v62h672q137 -2 254.5 -69.5t205 -180.5t136.5 -257.5t49 -299.5q0 -178 -50 -314.5t-142.5 -227.5t-222.5 -138t-288 -47q-61 0 -123.5 3t-123.5 3q-92 0 -183.5 -2t-183.5 -2v61q12 0 35.5 7.5t45 19.5 t38 27.5t16.5 31.5v592h-141zM440 182q0 -16 15.5 -31.5t38 -27.5t47 -19.5t43.5 -7.5q141 0 237.5 22.5t154.5 75t83.5 139.5t25.5 216q0 53 -3 113.5t-13 130.5q-10 74 -23.5 154.5t-35 159.5t-55 151.5t-85 127t-122 87t-164.5 32.5q-51 0 -97.5 -15t-46.5 -46v-594h197 v-76h-197v-592z" />
<glyph unicode="&#xd1;" horiz-adv-x="1480" d="M45 35v61q14 0 37.5 6.5t45.5 17.5t37 27.5t15 34.5v1262q0 14 -13 26.5t-32.5 19.5t-44 11t-45.5 4v62h195q35 0 72.5 -10.5t73.5 -29t66.5 -43t49.5 -50.5l700 -1061v1071q0 14 -13 26.5t-33.5 19.5t-45.5 11t-45 4v62h371v-62q-51 0 -96.5 -15t-45.5 -46v-1262 q0 -20 15.5 -35.5t37 -26.5t46 -17.5t43.5 -6.5v-61h-168q-59 0 -109.5 16.5t-88.5 40t-64.5 50t-38.5 46.5l-695 1076v-1082q0 -20 15.5 -35.5t37 -26.5t47 -17.5t44.5 -6.5v-61h-371zM309 1768q0 37 17.5 66.5t44 51t57 34t59.5 12.5q51 0 114.5 -28t116.5 -58 q33 -20 66 -43t62.5 -41.5t56 -29.5t45.5 -11q29 0 45 18.5t16 40.5q0 25 -14 53.5t-35 53.5l27 22q51 -61 72.5 -109.5t21.5 -89.5q0 -43 -16.5 -75.5t-40 -54t-51 -33t-52.5 -11.5q-43 0 -100 31t-115.5 69t-112 68.5t-90.5 30.5q-27 0 -57.5 -18.5t-30.5 -53.5 q0 -55 60 -120l-35 -25q-74 82 -102.5 144.5t-28.5 105.5z" />
<glyph unicode="&#xd2;" horiz-adv-x="1402" d="M41 803q0 156 50 298t139 250.5t210 172t262 63.5q139 0 260 -63.5t210.5 -171t139.5 -249.5t50 -300t-50 -300.5t-139.5 -250t-210 -171t-260.5 -63.5q-141 0 -262 63.5t-210 171t-139 250t-50 300.5zM311 1968h256l117 -332l-103 -8zM330 1044q0 -53 4 -114.5 t12 -126.5q45 -367 158.5 -541t275.5 -174q61 0 114.5 23.5t92.5 77t61.5 139.5t22.5 213q0 133 -16.5 262t-42 237.5t-57 192.5t-64.5 129q-114 158 -268 158q-61 0 -115.5 -27t-93.5 -84t-61.5 -147.5t-22.5 -217.5z" />
<glyph unicode="&#xd3;" horiz-adv-x="1402" d="M41 803q0 156 50 298t139 250.5t210 172t262 63.5q139 0 260 -63.5t210.5 -171t139.5 -249.5t50 -300t-50 -300.5t-139.5 -250t-210 -171t-260.5 -63.5q-141 0 -262 63.5t-210 171t-139 250t-50 300.5zM330 1044q0 -53 4 -114.5t12 -126.5q45 -367 158.5 -541t275.5 -174 q61 0 114.5 23.5t92.5 77t61.5 139.5t22.5 213q0 133 -16.5 262t-42 237.5t-57 192.5t-64.5 129q-114 158 -268 158q-61 0 -115.5 -27t-93.5 -84t-61.5 -147.5t-22.5 -217.5zM645 1652l117 332h256l-271 -340z" />
<glyph unicode="&#xd4;" horiz-adv-x="1402" d="M41 803q0 156 50 298t139 250.5t210 172t262 63.5q139 0 260 -63.5t210.5 -171t139.5 -249.5t50 -300t-50 -300.5t-139.5 -250t-210 -171t-260.5 -63.5q-141 0 -262 63.5t-210 171t-139 250t-50 300.5zM330 1044q0 -53 4 -114.5t12 -126.5q45 -367 158.5 -541t275.5 -174 q61 0 114.5 23.5t92.5 77t61.5 139.5t22.5 213q0 133 -16.5 262t-42 237.5t-57 192.5t-64.5 129q-114 158 -268 158q-61 0 -115.5 -27t-93.5 -84t-61.5 -147.5t-22.5 -217.5zM463 1624v88l205 207l205 -207v-88l-205 90z" />
<glyph unicode="&#xd5;" horiz-adv-x="1402" d="M41 803q0 156 50 298t139 250.5t210 172t262 63.5q139 0 260 -63.5t210.5 -171t139.5 -249.5t50 -300t-50 -300.5t-139.5 -250t-210 -171t-260.5 -63.5q-141 0 -262 63.5t-210 171t-139 250t-50 300.5zM301 1837q0 37 17.5 66.5t44 51t57 34t59.5 12.5q51 0 114.5 -28 t116.5 -58q33 -20 66 -43t62.5 -41.5t56 -29.5t45.5 -11q29 0 45 18.5t16 40.5q0 25 -14 53.5t-35 53.5l27 22q51 -61 72.5 -109.5t21.5 -89.5q0 -43 -16.5 -75.5t-40 -54t-51 -33t-52.5 -11.5q-43 0 -100 31t-115.5 69t-112 68.5t-90.5 30.5q-27 0 -57.5 -18.5t-30.5 -53.5 q0 -55 60 -120l-35 -25q-74 82 -102.5 144.5t-28.5 105.5zM330 1044q0 -53 4 -114.5t12 -126.5q45 -367 158.5 -541t275.5 -174q61 0 114.5 23.5t92.5 77t61.5 139.5t22.5 213q0 133 -16.5 262t-42 237.5t-57 192.5t-64.5 129q-114 158 -268 158q-61 0 -115.5 -27t-93.5 -84 t-61.5 -147.5t-22.5 -217.5z" />
<glyph unicode="&#xd6;" horiz-adv-x="1402" d="M41 803q0 156 50 298t139 250.5t210 172t262 63.5q139 0 260 -63.5t210.5 -171t139.5 -249.5t50 -300t-50 -300.5t-139.5 -250t-210 -171t-260.5 -63.5q-141 0 -262 63.5t-210 171t-139 250t-50 300.5zM254 1788q0 45 13 86t36.5 70.5t54.5 47t68 17.5t67.5 -17.5t54 -47 t37 -70.5t13.5 -86q0 -47 -13.5 -87t-37 -69.5t-54 -47t-67.5 -17.5t-68 17.5t-54.5 47t-36.5 69.5t-13 87zM330 1044q0 -53 4 -114.5t12 -126.5q45 -367 158.5 -541t275.5 -174q61 0 114.5 23.5t92.5 77t61.5 139.5t22.5 213q0 133 -16.5 262t-42 237.5t-57 192.5 t-64.5 129q-114 158 -268 158q-61 0 -115.5 -27t-93.5 -84t-61.5 -147.5t-22.5 -217.5zM778 1788q0 45 13.5 86t37 70.5t54 47t67.5 17.5t67.5 -17.5t54 -47t37 -70.5t13.5 -86q0 -47 -13.5 -87t-37 -69.5t-54 -47t-67.5 -17.5t-67.5 17.5t-54 47t-37 69.5t-13.5 87z" />
<glyph unicode="&#xd7;" d="M100 629l174 162l-165 174l88 84l165 -175l175 166l84 -88l-177 -166l164 -174l-88 -84l-164 174l-172 -161z" />
<glyph unicode="&#xd8;" horiz-adv-x="1402" d="M41 803q0 156 50 298t139 250.5t210 172t262 63.5q205 0 363 -125l154 234h122l-200 -305q115 -115 168 -267.5t53 -320.5q0 -158 -50 -300.5t-139.5 -250t-210 -171t-260.5 -63.5q-215 0 -376 136l-142 -213h-123l189 286q-111 109 -160 262.5t-49 313.5zM330 1044 q0 -66 6 -142.5t17.5 -153t26.5 -148.5t32 -127l528 801q-51 123 -138 184.5t-179 61.5q-61 0 -115.5 -27t-93.5 -84t-61.5 -147.5t-22.5 -217.5zM457 352q118 -264 323 -264q61 0 114.5 23.5t92.5 77t61.5 139.5t22.5 213q0 70 -7 152.5t-19.5 165.5t-29 160t-32.5 134z " />
<glyph unicode="&#xd9;" horiz-adv-x="1667" d="M37 1505v62h555v-62q-23 0 -47.5 -4t-44 -11t-32.5 -19.5t-13 -26.5v-430q0 -203 32.5 -373t87 -294t122 -193.5t137.5 -69.5t137 56.5t120.5 171t85 289.5t31.5 415v428q0 14 -13 26.5t-32.5 19.5t-44 11t-45.5 4v62h555v-62q-23 0 -47.5 -4t-43.5 -11t-32.5 -19.5 t-13.5 -26.5v-430q0 -240 -55.5 -426.5t-147.5 -312t-211 -191.5t-243 -66q-125 0 -244 66t-212 194t-149.5 314t-56.5 428v424q0 14 -13.5 26.5t-33 19.5t-44 11t-44.5 4zM518 1894h256l117 -332l-103 -8z" />
<glyph unicode="&#xda;" horiz-adv-x="1667" d="M37 1505v62h555v-62q-23 0 -47.5 -4t-44 -11t-32.5 -19.5t-13 -26.5v-430q0 -203 32.5 -373t87 -294t122 -193.5t137.5 -69.5t137 56.5t120.5 171t85 289.5t31.5 415v428q0 14 -13 26.5t-32.5 19.5t-44 11t-45.5 4v62h555v-62q-23 0 -47.5 -4t-43.5 -11t-32.5 -19.5 t-13.5 -26.5v-430q0 -240 -55.5 -426.5t-147.5 -312t-211 -191.5t-243 -66q-125 0 -244 66t-212 194t-149.5 314t-56.5 428v424q0 14 -13.5 26.5t-33 19.5t-44 11t-44.5 4zM774 1554l117 332h256l-271 -340z" />
<glyph unicode="&#xdb;" horiz-adv-x="1667" d="M37 1505v62h555v-62q-23 0 -47.5 -4t-44 -11t-32.5 -19.5t-13 -26.5v-430q0 -203 32.5 -373t87 -294t122 -193.5t137.5 -69.5t137 56.5t120.5 171t85 289.5t31.5 415v428q0 14 -13 26.5t-32.5 19.5t-44 11t-45.5 4v62h555v-62q-23 0 -47.5 -4t-43.5 -11t-32.5 -19.5 t-13.5 -26.5v-430q0 -240 -55.5 -426.5t-147.5 -312t-211 -191.5t-243 -66q-125 0 -244 66t-212 194t-149.5 314t-56.5 428v424q0 14 -13.5 26.5t-33 19.5t-44 11t-44.5 4zM633 1659v88l205 207l205 -207v-88l-205 90z" />
<glyph unicode="&#xdc;" horiz-adv-x="1667" d="M37 1505v62h555v-62q-23 0 -47.5 -4t-44 -11t-32.5 -19.5t-13 -26.5v-430q0 -203 32.5 -373t87 -294t122 -193.5t137.5 -69.5t137 56.5t120.5 171t85 289.5t31.5 415v428q0 14 -13 26.5t-32.5 19.5t-44 11t-45.5 4v62h555v-62q-23 0 -47.5 -4t-43.5 -11t-32.5 -19.5 t-13.5 -26.5v-430q0 -240 -55.5 -426.5t-147.5 -312t-211 -191.5t-243 -66q-125 0 -244 66t-212 194t-149.5 314t-56.5 428v424q0 14 -13.5 26.5t-33 19.5t-44 11t-44.5 4zM381 1845q0 45 13 86t36.5 70.5t54.5 47t68 17.5t67.5 -17.5t54 -47t37 -70.5t13.5 -86 q0 -47 -13.5 -87t-37 -69.5t-54 -47t-67.5 -17.5t-68 17.5t-54.5 47t-36.5 69.5t-13 87zM905 1845q0 45 13.5 86t37 70.5t54 47t67.5 17.5t67.5 -17.5t54 -47t37 -70.5t13.5 -86q0 -47 -13.5 -87t-37 -69.5t-54 -47t-67.5 -17.5t-67.5 17.5t-54 47t-37 69.5t-13.5 87z" />
<glyph unicode="&#xdd;" horiz-adv-x="1609" d="M41 1507v60h553v-62q-18 0 -30.5 -15t-12.5 -42q0 -37 22 -70l295 -413q72 102 148 206.5t147 206.5q16 25 26.5 52.5t12.5 46.5q0 29 -24 28v62h387l-2 -62q-45 -6 -93.5 -19t-94.5 -32.5t-85 -47.5t-63 -63l-301 -423l2 -762q0 -16 12 -27.5t32.5 -20t44 -11.5t46.5 -3 v-61h-555v61q20 0 45 3t45 11.5t33.5 19.5t13.5 28l2 704q-86 121 -172 241l-172 240q-47 66 -115.5 107t-146.5 57zM780 1542l117 332h256l-271 -340z" />
<glyph unicode="&#xde;" horiz-adv-x="1288" d="M47 35v61q12 0 35.5 7.5t45.5 19.5t38 27.5t16 31.5v1262q0 14 -13 26.5t-32.5 19.5t-44 11t-45.5 4v62h541v-62q-51 0 -97.5 -15t-46.5 -46v-166h379q106 -6 267 -80q156 -74 155 -311q0 -315 -149 -404q-150 -88 -332 -88h-322l-2 -213q0 -16 16.5 -31.5t38 -27.5 t44 -19.5t36.5 -7.5v-61h-528zM444 461h242q160 0 233.5 80t73.5 227q0 174 -37.5 277.5t-85.5 125.5q-88 45 -268 46h-158v-756z" />
<glyph unicode="&#xdf;" horiz-adv-x="1257" d="M90 35v61q119 0 162 72.5t43 226.5v774q0 90 38 179.5t102.5 160t150.5 114.5t180 44q70 0 129 -22.5t101 -65.5t65.5 -103.5t23.5 -136.5q0 -61 -16 -118.5t-48 -102.5t-78 -73.5t-103 -30.5q82 -6 147.5 -44t112.5 -102.5t72.5 -150.5t25.5 -187q0 -104 -34 -197 t-93 -163t-138 -111t-167 -41q-37 0 -70.5 11.5t-63.5 26t-55.5 25.5t-46.5 11q-18 0 -35.5 -8t-39 -17.5t-48 -17.5t-63.5 -10q-35 -2 -98.5 -3t-155.5 -1zM557 395q0 -25 10.5 -80t33 -111.5t57 -99.5t85.5 -43q92 0 128 85t36 225q0 143 -19.5 257.5t-51 194.5t-71.5 123 t-79 43h-6v37q78 18 126 113.5t48 242.5q-2 39 -7 81t-19.5 76t-40 55.5t-66.5 21.5q-63 0 -99 -40t-47 -114q-18 -147 -18 -241v-826z" />
<glyph unicode="&#xe0;" horiz-adv-x="1171" d="M35 285q0 37 12 79t39 80.5t70 70.5t102 46q174 43 289 55q109 12 108 193q0 33 -12 65.5t-32.5 58t-47 41t-55.5 15.5q-53 0 -75.5 -31.5t-33.5 -78.5q-20 -86 -67 -124t-99 -38q-49 0 -89 30.5t-40 79.5q0 37 32 76t82 70t114.5 50t130.5 19q94 0 180 -45t150.5 -115.5 t102.5 -159.5t38 -177v-150q0 -154 42 -226.5t163 -72.5v-61q-297 0 -385 74q-6 2 -13.5 2h-13.5q-33 0 -50.5 -14.5t-48 -32t-90 -32t-176.5 -14.5q-102 0 -165.5 24t-99.5 61.5t-49 86t-13 95.5zM233 1513h256l117 -332l-103 -8zM285 387q0 -82 19.5 -141.5t48 -97 t62.5 -55t62 -17.5q37 0 72 17.5t62.5 47t44 68.5t16.5 82v342q-23 -31 -61 -47.5t-81 -26.5t-87 -19.5t-78.5 -26.5t-57 -46t-22.5 -80z" />
<glyph unicode="&#xe1;" horiz-adv-x="1171" d="M35 285q0 37 12 79t39 80.5t70 70.5t102 46q174 43 289 55q109 12 108 193q0 33 -12 65.5t-32.5 58t-47 41t-55.5 15.5q-53 0 -75.5 -31.5t-33.5 -78.5q-20 -86 -67 -124t-99 -38q-49 0 -89 30.5t-40 79.5q0 37 32 76t82 70t114.5 50t130.5 19q94 0 180 -45t150.5 -115.5 t102.5 -159.5t38 -177v-150q0 -154 42 -226.5t163 -72.5v-61q-297 0 -385 74q-6 2 -13.5 2h-13.5q-33 0 -50.5 -14.5t-48 -32t-90 -32t-176.5 -14.5q-102 0 -165.5 24t-99.5 61.5t-49 86t-13 95.5zM285 387q0 -82 19.5 -141.5t48 -97t62.5 -55t62 -17.5q37 0 72 17.5 t62.5 47t44 68.5t16.5 82v342q-23 -31 -61 -47.5t-81 -26.5t-87 -19.5t-78.5 -26.5t-57 -46t-22.5 -80zM399 1171l117 332h256l-271 -340z" />
<glyph unicode="&#xe2;" horiz-adv-x="1171" d="M35 285q0 37 12 79t39 80.5t70 70.5t102 46q174 43 289 55q109 12 108 193q0 33 -12 65.5t-32.5 58t-47 41t-55.5 15.5q-53 0 -75.5 -31.5t-33.5 -78.5q-20 -86 -67 -124t-99 -38q-49 0 -89 30.5t-40 79.5q0 37 32 76t82 70t114.5 50t130.5 19q94 0 180 -45t150.5 -115.5 t102.5 -159.5t38 -177v-150q0 -154 42 -226.5t163 -72.5v-61q-297 0 -385 74q-6 2 -13.5 2h-13.5q-33 0 -50.5 -14.5t-48 -32t-90 -32t-176.5 -14.5q-102 0 -165.5 24t-99.5 61.5t-49 86t-13 95.5zM285 387q0 -82 19.5 -141.5t48 -97t62.5 -55t62 -17.5q37 0 72 17.5 t62.5 47t44 68.5t16.5 82v342q-23 -31 -61 -47.5t-81 -26.5t-87 -19.5t-78.5 -26.5t-57 -46t-22.5 -80zM293 1131v88l205 207l205 -207v-88l-205 90z" />
<glyph unicode="&#xe3;" horiz-adv-x="1171" d="M35 285q0 37 12 79t39 80.5t70 70.5t102 46q174 43 289 55q109 12 108 193q0 33 -12 65.5t-32.5 58t-47 41t-55.5 15.5q-53 0 -75.5 -31.5t-33.5 -78.5q-20 -86 -67 -124t-99 -38q-49 0 -89 30.5t-40 79.5q0 37 32 76t82 70t114.5 50t130.5 19q94 0 180 -45t150.5 -115.5 t102.5 -159.5t38 -177v-150q0 -154 42 -226.5t163 -72.5v-61q-297 0 -385 74q-6 2 -13.5 2h-13.5q-33 0 -50.5 -14.5t-48 -32t-90 -32t-176.5 -14.5q-102 0 -165.5 24t-99.5 61.5t-49 86t-13 95.5zM105 1352q0 37 17.5 66.5t44 51t57 34t59.5 12.5q51 0 114.5 -28t116.5 -58 q33 -20 66 -43t62.5 -41.5t56 -29.5t45.5 -11q29 0 45 18.5t16 40.5q0 25 -14 53.5t-35 53.5l27 22q51 -61 72.5 -109.5t21.5 -89.5q0 -43 -16.5 -75.5t-40 -54t-51 -33t-52.5 -11.5q-43 0 -100 31t-115.5 69t-112 68.5t-90.5 30.5q-27 0 -57.5 -18.5t-30.5 -53.5 q0 -55 60 -120l-35 -25q-74 82 -102.5 144.5t-28.5 105.5zM285 387q0 -82 19.5 -141.5t48 -97t62.5 -55t62 -17.5q37 0 72 17.5t62.5 47t44 68.5t16.5 82v342q-23 -31 -61 -47.5t-81 -26.5t-87 -19.5t-78.5 -26.5t-57 -46t-22.5 -80z" />
<glyph unicode="&#xe4;" horiz-adv-x="1171" d="M35 285q0 37 12 79t39 80.5t70 70.5t102 46q174 43 289 55q109 12 108 193q0 33 -12 65.5t-32.5 58t-47 41t-55.5 15.5q-53 0 -75.5 -31.5t-33.5 -78.5q-20 -86 -67 -124t-99 -38q-49 0 -89 30.5t-40 79.5q0 37 32 76t82 70t114.5 50t130.5 19q94 0 180 -45t150.5 -115.5 t102.5 -159.5t38 -177v-150q0 -154 42 -226.5t163 -72.5v-61q-297 0 -385 74q-6 2 -13.5 2h-13.5q-33 0 -50.5 -14.5t-48 -32t-90 -32t-176.5 -14.5q-102 0 -165.5 24t-99.5 61.5t-49 86t-13 95.5zM72 1446q0 45 13 86t36.5 70.5t54.5 47t68 17.5t67.5 -17.5t54 -47 t37 -70.5t13.5 -86q0 -47 -13.5 -87t-37 -69.5t-54 -47t-67.5 -17.5t-68 17.5t-54.5 47t-36.5 69.5t-13 87zM285 387q0 -82 19.5 -141.5t48 -97t62.5 -55t62 -17.5q37 0 72 17.5t62.5 47t44 68.5t16.5 82v342q-23 -31 -61 -47.5t-81 -26.5t-87 -19.5t-78.5 -26.5t-57 -46 t-22.5 -80zM596 1446q0 45 13.5 86t37 70.5t54 47t67.5 17.5t67.5 -17.5t54 -47t37 -70.5t13.5 -86q0 -47 -13.5 -87t-37 -69.5t-54 -47t-67.5 -17.5t-67.5 17.5t-54 47t-37 69.5t-13.5 87z" />
<glyph unicode="&#xe5;" horiz-adv-x="1171" d="M35 285q0 37 12 79t39 80.5t70 70.5t102 46q174 43 289 55q109 12 108 193q0 33 -12 65.5t-32.5 58t-47 41t-55.5 15.5q-53 0 -75.5 -31.5t-33.5 -78.5q-20 -86 -67 -124t-99 -38q-49 0 -89 30.5t-40 79.5q0 37 32 76t82 70t114.5 50t130.5 19q94 0 180 -45t150.5 -115.5 t102.5 -159.5t38 -177v-150q0 -154 42 -226.5t163 -72.5v-61q-297 0 -385 74q-6 2 -13.5 2h-13.5q-33 0 -50.5 -14.5t-48 -32t-90 -32t-176.5 -14.5q-102 0 -165.5 24t-99.5 61.5t-49 86t-13 95.5zM285 387q0 -82 19.5 -141.5t48 -97t62.5 -55t62 -17.5q37 0 72 17.5 t62.5 47t44 68.5t16.5 82v342q-23 -31 -61 -47.5t-81 -26.5t-87 -19.5t-78.5 -26.5t-57 -46t-22.5 -80zM324 1315q0 43 14 80t41 64.5t60.5 43t74.5 15.5q39 0 74 -15.5t60.5 -43t39.5 -64.5t14 -80t-14 -81t-39.5 -65.5t-60.5 -43t-74 -15.5q-80 0 -135 59.5t-55 145.5z M446 1374q0 -45 8.5 -87t20.5 -73.5t28.5 -50t33.5 -18.5q16 0 27 26.5t11 69.5t-8 83t-20 73t-28 52.5t-30 23.5h-6q-16 0 -26.5 -28t-10.5 -71z" />
<glyph unicode="&#xe6;" horiz-adv-x="1636" d="M35 285q0 37 12 79t39 80.5t70 70.5t102 46q174 43 289 55q109 12 108 193q0 33 -12 65.5t-32.5 58t-47 41t-55.5 15.5q-53 0 -75.5 -31.5t-33.5 -78.5q-20 -86 -67 -124t-99 -38q-49 0 -89 30.5t-40 79.5q0 37 32 76t82 70t114.5 50t130.5 19q104 0 180 -43t154 -120 l12 12q139 152 336 151q74 0 143.5 -24.5t128 -68.5t102.5 -104.5t70 -129.5q8 -25 8 -53q0 -27 -7 -49.5t-34.5 -38t-84 -23.5t-152.5 -8h-340q23 -193 85 -299.5t167 -106.5q53 0 100 16.5t86 43t66.5 60.5t44.5 69l39 -31q-2 -6 -4 -10t-4 -9q-61 -117 -170 -187.5 t-244 -70.5q-150 0 -252 78q-72 37 -125 37q-57 0 -96 -39q-76 -76 -310 -76q-102 0 -165.5 24t-99.5 61.5t-49 86t-13 95.5zM285 387q0 -82 19.5 -141.5t48 -97t62.5 -55t62 -17.5q37 0 72 17.5t62.5 47t44 68.5t16.5 82v342q-23 -31 -61 -47.5t-81 -26.5t-87 -19.5 t-78.5 -26.5t-57 -46t-22.5 -80zM967 711q0 -56 6 -117h227q35 0 57.5 11t22.5 50q0 10 -2 22.5t-6 29.5q-39 123 -90.5 199.5t-104.5 76.5q-49 0 -79.5 -74.5t-30.5 -197.5z" />
<glyph unicode="&#xe7;" horiz-adv-x="985" d="M43 530q0 104 38 196.5t102.5 163.5t150.5 111.5t184 40.5q45 0 79 -9t62.5 -21.5t56 -21.5t62.5 -9q84 0 111 51h61l-135 -358h-47q-12 43 -34.5 99t-53.5 106.5t-69 84t-81 33.5q-47 0 -79.5 -23.5t-53 -66.5t-29 -100t-8.5 -125q0 -268 72 -406.5t184 -138.5 q53 0 100.5 16.5t86.5 43t66.5 60.5t43.5 69l39 -31q-23 -61 -67.5 -111.5t-103 -87.5t-124 -57.5t-127.5 -20.5q-102 0 -191 41t-154.5 111t-103.5 163t-38 197zM323 -274q0 53 20.5 103t53.5 94t75 78t85 54l61 -30q-37 -18 -61.5 -50t-24.5 -75q0 -70 92 -131 q61 -41 62 -117q0 -78 -44 -128t-112 -50q-41 0 -77.5 20.5t-65.5 55t-46.5 80.5t-17.5 96z" />
<glyph unicode="&#xe8;" horiz-adv-x="1024" d="M43 530q0 104 38 196.5t102.5 163.5t150.5 111.5t184 40.5q74 0 143.5 -24.5t128 -68.5t102.5 -104.5t71 -129.5q8 -25 8 -53q0 -27 -7.5 -49.5t-35 -38t-84 -23.5t-152.5 -8h-340q23 -193 85.5 -299.5t166.5 -106.5q53 0 100.5 16.5t86 43t66.5 60.5t44 69l39 -31 q-2 -6 -4 -10t-4 -9q-61 -117 -170 -187.5t-244 -70.5q-98 0 -185 41t-151.5 111t-101.5 163t-37 197zM164 1483h256l117 -332l-103 -8zM340 711q0 -56 6 -117h227q35 0 57.5 11t22.5 50q0 10 -2 22.5t-6 29.5q-39 123 -90 199.5t-104 76.5q-49 0 -80 -74.5t-31 -197.5z" />
<glyph unicode="&#xe9;" horiz-adv-x="1024" d="M43 530q0 104 38 196.5t102.5 163.5t150.5 111.5t184 40.5q74 0 143.5 -24.5t128 -68.5t102.5 -104.5t71 -129.5q8 -25 8 -53q0 -27 -7.5 -49.5t-35 -38t-84 -23.5t-152.5 -8h-340q23 -193 85.5 -299.5t166.5 -106.5q53 0 100.5 16.5t86 43t66.5 60.5t44 69l39 -31 q-2 -6 -4 -10t-4 -9q-61 -117 -170 -187.5t-244 -70.5q-98 0 -185 41t-151.5 111t-101.5 163t-37 197zM340 711q0 -56 6 -117h227q35 0 57.5 11t22.5 50q0 10 -2 22.5t-6 29.5q-39 123 -90 199.5t-104 76.5q-49 0 -80 -74.5t-31 -197.5zM375 1214l117 332h256l-271 -340z " />
<glyph unicode="&#xea;" horiz-adv-x="1024" d="M43 530q0 104 38 196.5t102.5 163.5t150.5 111.5t184 40.5q74 0 143.5 -24.5t128 -68.5t102.5 -104.5t71 -129.5q8 -25 8 -53q0 -27 -7.5 -49.5t-35 -38t-84 -23.5t-152.5 -8h-340q23 -193 85.5 -299.5t166.5 -106.5q53 0 100.5 16.5t86 43t66.5 60.5t44 69l39 -31 q-2 -6 -4 -10t-4 -9q-61 -117 -170 -187.5t-244 -70.5q-98 0 -185 41t-151.5 111t-101.5 163t-37 197zM307 1139v88l205 207l205 -207v-88l-205 90zM340 711q0 -56 6 -117h227q35 0 57.5 11t22.5 50q0 10 -2 22.5t-6 29.5q-39 123 -90 199.5t-104 76.5q-49 0 -80 -74.5 t-31 -197.5z" />
<glyph unicode="&#xeb;" horiz-adv-x="1024" d="M43 530q0 104 38 196.5t102.5 163.5t150.5 111.5t184 40.5q74 0 143.5 -24.5t128 -68.5t102.5 -104.5t71 -129.5q8 -25 8 -53q0 -27 -7.5 -49.5t-35 -38t-84 -23.5t-152.5 -8h-340q23 -193 85.5 -299.5t166.5 -106.5q53 0 100.5 16.5t86 43t66.5 60.5t44 69l39 -31 q-2 -6 -4 -10t-4 -9q-61 -117 -170 -187.5t-244 -70.5q-98 0 -185 41t-151.5 111t-101.5 163t-37 197zM80 1446q0 45 13 86t36.5 70.5t54.5 47t68 17.5t67.5 -17.5t54 -47t37 -70.5t13.5 -86q0 -47 -13.5 -87t-37 -69.5t-54 -47t-67.5 -17.5t-68 17.5t-54.5 47t-36.5 69.5 t-13 87zM340 711q0 -56 6 -117h227q35 0 57.5 11t22.5 50q0 10 -2 22.5t-6 29.5q-39 123 -90 199.5t-104 76.5q-49 0 -80 -74.5t-31 -197.5zM604 1446q0 45 13.5 86t37 70.5t54 47t67.5 17.5t67.5 -17.5t54 -47t37 -70.5t13.5 -86q0 -47 -13.5 -87t-37 -69.5t-54 -47 t-67.5 -17.5t-67.5 17.5t-54 47t-37 69.5t-13.5 87z" />
<glyph unicode="&#xec;" horiz-adv-x="776" d="M25 1649h256l116 -332l-102 -8zM43 35v61q113 0 159 64.5t46 204.5v30l-4 150q0 14 -6.5 43.5t-17.5 60.5t-28.5 53.5t-41.5 22.5q-39 0 -89 -35v53l385 299h60l4 -647q0 -78 9 -134t31.5 -93t64.5 -54.5t108 -17.5v-61h-680z" />
<glyph unicode="&#xed;" horiz-adv-x="776" d="M43 35v61q113 0 159 64.5t46 204.5v30l-4 150q0 14 -6.5 43.5t-17.5 60.5t-28.5 53.5t-41.5 22.5q-39 0 -89 -35v53l385 299h60l4 -647q0 -78 9 -134t31.5 -93t64.5 -54.5t108 -17.5v-61h-680zM254 1190l117 332h256l-271 -340z" />
<glyph unicode="&#xee;" horiz-adv-x="759" d="M27 35v61q113 0 158.5 64.5t45.5 204.5v30l-4 150q0 14 -6 43.5t-17 60.5t-28.5 53.5t-42.5 22.5q-39 0 -88 -35v53l385 299h59l5 -647q0 -78 9 -134t31.5 -93t64.5 -54.5t108 -17.5v-61h-680zM100 1165v88l205 207l205 -207v-88l-205 90z" />
<glyph unicode="&#xef;" horiz-adv-x="776" d="M-6 1403q0 45 13 86t37 70.5t54.5 47t67.5 17.5t67.5 -17.5t54 -47t37 -70.5t13.5 -86q0 -47 -13.5 -87t-37 -69.5t-54 -47t-67.5 -17.5t-67.5 17.5t-54.5 47t-37 69.5t-13 87zM43 35v61q113 0 159 64.5t46 204.5v30l-4 150q0 14 -6.5 43.5t-17.5 60.5t-28.5 53.5 t-41.5 22.5q-39 0 -89 -35v53l385 299h60l4 -647q0 -78 9 -134t31.5 -93t64.5 -54.5t108 -17.5v-61h-680zM391 1403q0 45 13.5 86t37 70.5t54 47t67.5 17.5t68 -17.5t54.5 -47t36.5 -70.5t13 -86q0 -47 -13 -87t-36.5 -69.5t-54.5 -47t-68 -17.5t-67.5 17.5t-54 47t-37 69.5 t-13.5 87z" />
<glyph unicode="&#xf0;" horiz-adv-x="1169" d="M16 586q0 123 41 221t110 166.5t160 105.5t189 37q129 0 254 -63q-25 76 -55.5 142.5t-69.5 123.5l-211 -98l4 112l148 70q-41 70 -114 103.5t-144 33.5q-25 0 -51.5 -3t-55.5 -11l-12 71q80 33 164 33q94 0 190 -45t174 -112l256 122v-112l-178 -84q68 -68 124 -155 t96 -181t62.5 -188.5t22.5 -174.5q0 -367 -146.5 -535.5t-422.5 -168.5q-104 0 -200.5 37t-171.5 110.5t-119 184t-44 258.5zM279 702q0 -125 29.5 -240.5t78.5 -203.5t111.5 -141.5t128.5 -53.5q121 0 175 125t54 342q0 100 -12 202t-41 206q-164 90 -279 90 q-117 0 -181 -84t-64 -242z" />
<glyph unicode="&#xf1;" horiz-adv-x="1409" d="M39 35v61q119 0 162 72.5t43 226.5v150q0 14 -5 43.5t-16.5 60.5t-30 53.5t-42.5 22.5q-39 0 -88 -35v53l385 299h59q0 -39 27 -38q16 0 34 8q63 31 148 30q88 0 167 -25.5t137 -88t93 -169t35 -265.5v-99q0 -76 7 -132t29.5 -93t64.5 -55.5t112 -18.5v-61 q-184 0 -290.5 20.5t-162 60.5t-70 97t-14.5 133q0 45 6.5 94t6.5 103q0 94 -18.5 174t-47 138t-64.5 90t-71 32q-39 0 -63.5 -21.5t-39 -52.5t-20.5 -67.5t-6 -67.5v-373q0 -78 9 -134t33 -93t64.5 -54.5t106.5 -17.5v-61h-680zM244 1348q0 37 17.5 66.5t44 51t57 34 t59.5 12.5q51 0 114.5 -28t116.5 -58q33 -20 66 -43t62.5 -41.5t56 -29.5t45.5 -11q29 0 45 18.5t16 40.5q0 25 -14 53.5t-35 53.5l27 22q51 -61 72.5 -109.5t21.5 -89.5q0 -43 -16.5 -75.5t-40 -54t-51 -33t-52.5 -11.5q-43 0 -100 31t-115.5 69t-112 68.5t-90.5 30.5 q-27 0 -57.5 -18.5t-30.5 -53.5q0 -55 60 -120l-35 -25q-74 82 -102.5 144.5t-28.5 105.5z" />
<glyph unicode="&#xf2;" horiz-adv-x="1042" d="M51 530q0 104 38 196.5t102.5 163.5t150.5 111.5t184 40.5t184.5 -40.5t152 -111.5t103.5 -164t38 -196q0 -104 -38 -196t-102.5 -163t-151.5 -112t-186 -41q-98 0 -185 41t-151.5 111t-101.5 163t-37 197zM119 1550h256l117 -332l-103 -8zM348 707q0 -113 22.5 -225.5 t57.5 -204t80 -147.5t90 -56t76 75.5t31 200.5q0 106 -21.5 216t-55.5 200t-76 149.5t-83 67.5h-12q-47 0 -78 -76t-31 -200z" />
<glyph unicode="&#xf3;" horiz-adv-x="1042" d="M51 530q0 104 38 196.5t102.5 163.5t150.5 111.5t184 40.5t184.5 -40.5t152 -111.5t103.5 -164t38 -196q0 -104 -38 -196t-102.5 -163t-151.5 -112t-186 -41q-98 0 -185 41t-151.5 111t-101.5 163t-37 197zM348 707q0 -113 22.5 -225.5t57.5 -204t80 -147.5t90 -56 t76 75.5t31 200.5q0 106 -21.5 216t-55.5 200t-76 149.5t-83 67.5h-12q-47 0 -78 -76t-31 -200zM428 1200l117 332h256l-271 -340z" />
<glyph unicode="&#xf4;" horiz-adv-x="1042" d="M51 530q0 104 38 196.5t102.5 163.5t150.5 111.5t184 40.5t184.5 -40.5t152 -111.5t103.5 -164t38 -196q0 -104 -38 -196t-102.5 -163t-151.5 -112t-186 -41q-98 0 -185 41t-151.5 111t-101.5 163t-37 197zM315 1139v88l205 207l205 -207v-88l-205 90zM348 707 q0 -113 22.5 -225.5t57.5 -204t80 -147.5t90 -56t76 75.5t31 200.5q0 106 -21.5 216t-55.5 200t-76 149.5t-83 67.5h-12q-47 0 -78 -76t-31 -200z" />
<glyph unicode="&#xf5;" horiz-adv-x="1042" d="M51 530q0 104 38 196.5t102.5 163.5t150.5 111.5t184 40.5t184.5 -40.5t152 -111.5t103.5 -164t38 -196q0 -104 -38 -196t-102.5 -163t-151.5 -112t-186 -41q-98 0 -185 41t-151.5 111t-101.5 163t-37 197zM123 1286q0 37 17.5 66.5t44 51t57 34t59.5 12.5 q51 0 114.5 -28t116.5 -58q33 -20 66 -43t62.5 -41.5t56 -29.5t45.5 -11q29 0 45 18.5t16 40.5q0 25 -14 53.5t-35 53.5l27 22q51 -61 72.5 -109.5t21.5 -89.5q0 -43 -16.5 -75.5t-40 -54t-51 -33t-52.5 -11.5q-43 0 -100 31t-115.5 69t-112 68.5t-90.5 30.5 q-27 0 -57.5 -18.5t-30.5 -53.5q0 -55 60 -120l-35 -25q-74 82 -102.5 144.5t-28.5 105.5zM348 707q0 -113 22.5 -225.5t57.5 -204t80 -147.5t90 -56t76 75.5t31 200.5q0 106 -21.5 216t-55.5 200t-76 149.5t-83 67.5h-12q-47 0 -78 -76t-31 -200z" />
<glyph unicode="&#xf6;" horiz-adv-x="1042" d="M51 530q0 104 38 196.5t102.5 163.5t150.5 111.5t184 40.5t184.5 -40.5t152 -111.5t103.5 -164t38 -196q0 -104 -38 -196t-102.5 -163t-151.5 -112t-186 -41q-98 0 -185 41t-151.5 111t-101.5 163t-37 197zM90 1446q0 45 13 86t36.5 70.5t54.5 47t68 17.5t67.5 -17.5 t54 -47t37 -70.5t13.5 -86q0 -47 -13.5 -87t-37 -69.5t-54 -47t-67.5 -17.5t-68 17.5t-54.5 47t-36.5 69.5t-13 87zM348 707q0 -113 22.5 -225.5t57.5 -204t80 -147.5t90 -56t76 75.5t31 200.5q0 106 -21.5 216t-55.5 200t-76 149.5t-83 67.5h-12q-47 0 -78 -76t-31 -200z M614 1446q0 45 13.5 86t37 70.5t54 47t67.5 17.5t67.5 -17.5t54 -47t37 -70.5t13.5 -86q0 -47 -13.5 -87t-37 -69.5t-54 -47t-67.5 -17.5t-67.5 17.5t-54 47t-37 69.5t-13.5 87z" />
<glyph unicode="&#xf7;" horiz-adv-x="704" d="M47 729v121h600v-121h-600zM186 422q0 45 13.5 86t37 70.5t54 47t67.5 17.5t68 -17.5t54.5 -47t36.5 -70.5t13 -86q0 -47 -13 -87t-36.5 -69.5t-54.5 -47t-68 -17.5t-67.5 17.5t-54 47t-37 69.5t-13.5 87zM186 1161q0 45 13.5 86t37 71t54 47t67.5 17t68 -17t54.5 -47 t36.5 -71t13 -86q0 -47 -13 -87t-36.5 -69.5t-54.5 -47t-68 -17.5t-67.5 17.5t-54 47t-37 69.5t-13.5 87z" />
<glyph unicode="&#xf8;" horiz-adv-x="1036" d="M45 530q0 104 38 196.5t102.5 163.5t150.5 111.5t184 40.5q127 0 236 -67l45 69h123l-88 -133l20 -20q72 -72 106.5 -164t34.5 -197q0 -104 -37.5 -196t-102 -163t-152 -112t-185.5 -41q-131 0 -233 64l-54 -82h-122l96 145l-23 23q-139 152 -139 362zM342 707 q0 -68 10 -149t27 -150l242 364q-29 96 -76 150.5t-82 60.5h-12q-47 0 -78 -76t-31 -200zM418 281l24 -56q68 -152 150 -151q45 0 75.5 75.5t30.5 200.5q0 66 -10 147t-26 150z" />
<glyph unicode="&#xf9;" horiz-adv-x="1484" d="M59 690v53l385 299h60l4 -520q2 -63 12 -136t40 -135.5t82 -103.5t138 -41q84 0 129 52.5t45 132.5v278q-2 18 -8 45t-18.5 51.5t-29.5 42t-38 17.5q-35 0 -86 -35v53l385 299h60v-647q0 -78 9 -134t32.5 -93t65.5 -54.5t108 -17.5v-61h-445h27q0 47 -55 47 q-35 0 -91 -19q-129 -43 -241 -43q-109 0 -182.5 25t-117.5 79t-64.5 142t-22.5 215l-2 88q-2 18 -8.5 45t-18.5 51.5t-29.5 42t-38.5 17.5q-35 0 -86 -35zM381 1569h256l117 -332l-103 -8z" />
<glyph unicode="&#xfa;" horiz-adv-x="1484" d="M59 690v53l385 299h60l4 -520q2 -63 12 -136t40 -135.5t82 -103.5t138 -41q84 0 129 52.5t45 132.5v278q-2 18 -8 45t-18.5 51.5t-29.5 42t-38 17.5q-35 0 -86 -35v53l385 299h60v-647q0 -78 9 -134t32.5 -93t65.5 -54.5t108 -17.5v-61h-445h27q0 47 -55 47 q-35 0 -91 -19q-129 -43 -241 -43q-109 0 -182.5 25t-117.5 79t-64.5 142t-22.5 215l-2 88q-2 18 -8.5 45t-18.5 51.5t-29.5 42t-38.5 17.5q-35 0 -86 -35zM653 1099l117 332h256l-271 -340z" />
<glyph unicode="&#xfb;" horiz-adv-x="1484" d="M59 690v53l385 299h60l4 -520q2 -63 12 -136t40 -135.5t82 -103.5t138 -41q84 0 129 52.5t45 132.5v278q-2 18 -8 45t-18.5 51.5t-29.5 42t-38 17.5q-35 0 -86 -35v53l385 299h60v-647q0 -78 9 -134t32.5 -93t65.5 -54.5t108 -17.5v-61h-445h27q0 47 -55 47 q-35 0 -91 -19q-129 -43 -241 -43q-109 0 -182.5 25t-117.5 79t-64.5 142t-22.5 215l-2 88q-2 18 -8.5 45t-18.5 51.5t-29.5 42t-38.5 17.5q-35 0 -86 -35zM536 1139v88l205 207l205 -207v-88l-205 90z" />
<glyph unicode="&#xfc;" horiz-adv-x="1484" d="M59 690v53l385 299h60l4 -520q2 -63 12 -136t40 -135.5t82 -103.5t138 -41q84 0 129 52.5t45 132.5v278q-2 18 -8 45t-18.5 51.5t-29.5 42t-38 17.5q-35 0 -86 -35v53l385 299h60v-647q0 -78 9 -134t32.5 -93t65.5 -54.5t108 -17.5v-61h-445h27q0 47 -55 47 q-35 0 -91 -19q-129 -43 -241 -43q-109 0 -182.5 25t-117.5 79t-64.5 142t-22.5 215l-2 88q-2 18 -8.5 45t-18.5 51.5t-29.5 42t-38.5 17.5q-35 0 -86 -35zM308 1446q0 45 13 86t36.5 70.5t54.5 47t68 17.5t67.5 -17.5t54 -47t37 -70.5t13.5 -86q0 -47 -13.5 -87t-37 -69.5 t-54 -47t-67.5 -17.5t-68 17.5t-54.5 47t-36.5 69.5t-13 87zM832 1446q0 45 13.5 86t37 70.5t54 47t67.5 17.5t67.5 -17.5t54 -47t37 -70.5t13.5 -86q0 -47 -13.5 -87t-37 -69.5t-54 -47t-67.5 -17.5t-67.5 17.5t-54 47t-37 69.5t-13.5 87z" />
<glyph unicode="&#xfd;" horiz-adv-x="1394" d="M47 -168q0 74 45 124t113 50q27 0 54.5 -12t51 -31.5t37.5 -46.5t14 -57q0 -16 -6 -30.5l-12 -29t-12 -32t-6 -41.5q0 -88 67 -88q39 0 74 30.5t63 98.5l113 256l-401 841q-43 88 -189 99v63h629v-63q-47 -4 -77 -36t-30 -67q0 -12 7 -20l223 -455l196 446q4 12 5 21 q0 37 -40 74t-98 37v63h478v-63q-86 0 -159 -20.5t-97 -82.5l-373 -842l-148 -323q-78 -166 -217 -166q-74 0 -130 29.5t-95 73.5t-59.5 97.5t-20.5 102.5zM696 1149l117 332h256l-271 -340z" />
<glyph unicode="&#xfe;" horiz-adv-x="1187" d="M20 -543q119 0 162 73t43 226v1413q0 14 -5 45t-16 62t-29.5 53.5t-43.5 22.5q-37 0 -88 -37v53l385 299h59v-641q0 -35 21 -35q10 0 30.5 8.5t45 17.5t54.5 17t58 8q88 0 167 -40.5t137.5 -111.5t93 -164t34.5 -196q0 -104 -33.5 -197t-93 -163t-138.5 -111t-167 -41 q-27 0 -54.5 8.5t-52 19.5t-44 19.5t-29.5 8.5q-29 0 -29 -51v-267q0 -76 9.5 -132t33 -93t64.5 -55.5t106 -18.5v-61h-680v61zM487 492.5q0 -17.5 2 -37.5q2 -59 11.5 -128t30 -128.5t54 -99.5t83.5 -40q37 0 66.5 14.5t51 52.5t33.5 106.5t12 179.5t-15 212t-44 180 t-68.5 126t-87.5 47q-39 0 -63.5 -21.5t-38.5 -52.5t-20.5 -67.5t-6.5 -67.5v-242v-33.5z" />
<glyph unicode="&#xff;" horiz-adv-x="1394" d="M47 -168q0 74 45 124t113 50q27 0 54.5 -12t51 -31.5t37.5 -46.5t14 -57q0 -16 -6 -30.5l-12 -29t-12 -32t-6 -41.5q0 -88 67 -88q39 0 74 30.5t63 98.5l113 256l-401 841q-43 88 -189 99v63h629v-63q-47 -4 -77 -36t-30 -67q0 -12 7 -20l223 -455l196 446q4 12 5 21 q0 37 -40 74t-98 37v63h478v-63q-86 0 -159 -20.5t-97 -82.5l-373 -842l-148 -323q-78 -166 -217 -166q-74 0 -130 29.5t-95 73.5t-59.5 97.5t-20.5 102.5zM262 1446q0 45 13 86t36.5 70.5t54.5 47t68 17.5t67.5 -17.5t54 -47t37 -70.5t13.5 -86q0 -47 -13.5 -87t-37 -69.5 t-54 -47t-67.5 -17.5t-68 17.5t-54.5 47t-36.5 69.5t-13 87zM786 1446q0 45 13.5 86t37 70.5t54 47t67.5 17.5t67.5 -17.5t54 -47t37 -70.5t13.5 -86q0 -47 -13.5 -87t-37 -69.5t-54 -47t-67.5 -17.5t-67.5 17.5t-54 47t-37 69.5t-13.5 87z" />
<glyph unicode="&#x152;" horiz-adv-x="2191" d="M35 829q0 174 50 311.5t143.5 231.5t225.5 144.5t294 50.5q20 0 41.5 -2t37.5 -2v4h869q45 0 79.5 14t34.5 35q0 10 -8 18l86 4l234 -288l-62 -47q-37 39 -84 75.5t-96 64t-95 45t-83 17.5h-457v-573h391q51 0 98.5 34.5t92.5 82.5l59 -48q-16 -20 -32.5 -39.5t-42 -50 t-63.5 -79t-99 -125.5l-60 45q27 27 27 86q0 31 -14 30h-357v-772h457q37 0 83 16.5t94 44t95 64.5t86 78l62 -47l-234 -287l-86 4q8 8 8 17q0 20 -34.5 34.5t-79.5 14.5l-1006 -2q-141 2 -261 69.5t-208 179t-137 254t-49 293.5zM330 1051q0 -53 3 -115t13 -129 q10 -74 23.5 -155t35 -159.5t54.5 -151.5t83 -127t118.5 -87t160.5 -33l6 2q10 0 28.5 4t37 11.5t35 17.5t26.5 25v1263q0 20 -15 35.5t-36.5 27t-44 17.5t-37.5 6q-137 0 -230 -21.5t-151.5 -72.5t-84 -139t-25.5 -219z" />
<glyph unicode="&#x153;" horiz-adv-x="1669" d="M51 530q0 104 38 196.5t102.5 163.5t150.5 111.5t184 40.5q190 0 328 -143q135 143 328 143q74 0 143.5 -24.5t127.5 -68.5t102 -104.5t71 -129.5q8 -25 8 -53q0 -27 -7 -49.5t-34.5 -38t-84 -23.5t-152.5 -8h-340q23 -193 85 -299.5t167 -106.5q53 0 100 16.5t86 43 t66.5 60.5t44.5 69l39 -31q-2 -6 -4.5 -10t-4.5 -9q-61 -117 -169.5 -187.5t-243.5 -70.5q-188 0 -328 140q-139 -139 -328 -140q-98 0 -185 41t-151.5 111t-101.5 163t-37 197zM348 707q0 -113 22.5 -225.5t57.5 -204t80 -147.5t90 -56t76 75.5t31 200.5q0 106 -21.5 216 t-55.5 200t-76 149.5t-83 67.5h-12q-47 0 -78 -76t-31 -200zM1004 711q0 -56 6 -117h227q35 0 57.5 11t22.5 50q0 10 -2 22.5t-6 29.5q-39 123 -90.5 199.5t-104.5 76.5q-49 0 -79.5 -74.5t-30.5 -197.5z" />
<glyph unicode="&#x178;" horiz-adv-x="1609" d="M41 1507v60h553v-62q-18 0 -30.5 -15t-12.5 -42q0 -37 22 -70l295 -413q72 102 148 206.5t147 206.5q16 25 26.5 52.5t12.5 46.5q0 29 -24 28v62h387l-2 -62q-45 -6 -93.5 -19t-94.5 -32.5t-85 -47.5t-63 -63l-301 -423l2 -762q0 -16 12 -27.5t32.5 -20t44 -11.5t46.5 -3 v-61h-555v61q20 0 45 3t45 11.5t33.5 19.5t13.5 28l2 704q-86 121 -172 241l-172 240q-47 66 -115.5 107t-146.5 57zM428 1862q0 45 13 86t36.5 70.5t54.5 47t68 17.5t67.5 -17.5t54 -47t37 -70.5t13.5 -86q0 -47 -13.5 -87t-37 -69.5t-54 -47t-67.5 -17.5t-68 17.5 t-54.5 47t-36.5 69.5t-13 87zM952 1862q0 45 13.5 86t37 70.5t54 47t67.5 17.5t67.5 -17.5t54 -47t37 -70.5t13.5 -86q0 -47 -13.5 -87t-37 -69.5t-54 -47t-67.5 -17.5t-67.5 17.5t-54 47t-37 69.5t-13.5 87z" />
<glyph unicode="&#x2c6;" horiz-adv-x="1705" d="M-205 1139v88l205 207l205 -207v-88l-205 90z" />
<glyph unicode="&#x2dc;" horiz-adv-x="1284" d="M-389 1485q0 37 17.5 66.5t44 51t57 34t59.5 12.5q51 0 114.5 -28t116.5 -58q33 -20 66 -43t62.5 -41.5t56 -29.5t45.5 -11q29 0 45 18.5t16 40.5q0 25 -14 53.5t-35 53.5l27 22q51 -61 72.5 -109.5t21.5 -89.5q0 -43 -16.5 -75.5t-40 -54t-51 -33t-52.5 -11.5 q-43 0 -100 31t-115.5 69t-112 68.5t-90.5 30.5q-27 0 -57.5 -18.5t-30.5 -53.5q0 -55 60 -120l-35 -25q-74 82 -102.5 144.5t-28.5 105.5z" />
<glyph unicode="&#x2000;" horiz-adv-x="1041" />
<glyph unicode="&#x2001;" horiz-adv-x="2083" />
<glyph unicode="&#x2002;" horiz-adv-x="1041" />
<glyph unicode="&#x2003;" horiz-adv-x="2083" />
<glyph unicode="&#x2004;" horiz-adv-x="694" />
<glyph unicode="&#x2005;" horiz-adv-x="520" />
<glyph unicode="&#x2006;" horiz-adv-x="347" />
<glyph unicode="&#x2007;" horiz-adv-x="347" />
<glyph unicode="&#x2008;" horiz-adv-x="260" />
<glyph unicode="&#x2009;" horiz-adv-x="416" />
<glyph unicode="&#x200a;" horiz-adv-x="115" />
<glyph unicode="&#x2010;" d="M61 729v121h601v-121h-601z" />
<glyph unicode="&#x2011;" d="M61 729v121h601v-121h-601z" />
<glyph unicode="&#x2012;" d="M61 729v121h601v-121h-601z" />
<glyph unicode="&#x2013;" horiz-adv-x="835" d="M117 729v121h600v-121h-600z" />
<glyph unicode="&#x2014;" horiz-adv-x="1036" d="M90 729v121h871v-121h-871z" />
<glyph unicode="&#x2018;" horiz-adv-x="483" d="M68 1327q0 53 20.5 103.5t53 94.5t74.5 77.5t85 54.5l61 -31q-37 -18 -61.5 -51t-24.5 -76q0 -68 93 -129q61 -41 61 -119q0 -76 -44 -126t-112 -50q-41 0 -77.5 20.5t-65.5 55.5t-46 81t-17 95z" />
<glyph unicode="&#x2019;" horiz-adv-x="483" d="M43 1464q0 78 44 127t112 49q39 0 75.5 -20.5t65.5 -54t46 -78.5t17 -94q0 -53 -19 -103.5t-52 -94.5t-75 -79t-85 -55l-61 31q37 16 61.5 47.5t24.5 77.5q0 68 -93 131q-61 39 -61 116z" />
<glyph unicode="&#x201a;" horiz-adv-x="483" d="M47 219q0 78 44 127t112 49q39 0 75.5 -20.5t65.5 -54t46.5 -78.5t17.5 -95q0 -53 -19.5 -103t-52.5 -94t-75 -79t-85 -55l-61 30q37 16 61.5 49t24.5 78q0 66 -92 129q-61 39 -62 117z" />
<glyph unicode="&#x201c;" horiz-adv-x="901" d="M68 1327q0 53 20.5 103.5t53 94.5t74.5 77.5t85 54.5l61 -31q-37 -18 -61.5 -51t-24.5 -76q0 -68 93 -129q61 -41 61 -119q0 -76 -44 -126t-112 -50q-41 0 -77.5 20.5t-65.5 55.5t-46 81t-17 95zM508 1327q0 53 20.5 103.5t53 94.5t74.5 77.5t85 54.5l62 -31 q-37 -18 -61.5 -51t-24.5 -76q0 -68 92 -129q61 -41 61 -119q0 -76 -44 -126t-111 -50q-41 0 -78 20.5t-65.5 55.5t-46 81t-17.5 95z" />
<glyph unicode="&#x201d;" horiz-adv-x="901" d="M43 1464q0 78 44 127t112 49q39 0 75.5 -20.5t65.5 -54t46 -78.5t17 -94q0 -53 -19 -103.5t-52 -94.5t-75 -79t-85 -55l-61 31q37 16 61.5 47.5t24.5 77.5q0 68 -93 131q-61 39 -61 116zM483 1464q0 78 44 127t112 49q39 0 76 -20.5t65.5 -54t46 -78.5t17.5 -94 q0 -53 -19.5 -103.5t-52.5 -94.5t-75 -79t-85 -55l-61 31q37 16 61.5 47.5t24.5 77.5q0 68 -92 131q-61 39 -62 116z" />
<glyph unicode="&#x201e;" horiz-adv-x="888" d="M47 219q0 78 44 127t112 49q39 0 75.5 -20.5t65.5 -54t46.5 -78.5t17.5 -95q0 -53 -19.5 -103t-52.5 -94t-75 -79t-85 -55l-61 30q37 16 61.5 49t24.5 78q0 66 -92 129q-61 39 -62 117zM479 219q0 78 44 127t112 49q39 0 76 -20.5t65.5 -54t46 -78.5t17.5 -95 q0 -53 -19.5 -103t-52.5 -94t-75 -79t-85 -55l-61 30q37 16 61.5 49t24.5 78q0 66 -92 129q-61 39 -62 117z" />
<glyph unicode="&#x2022;" horiz-adv-x="559" d="M35 870q0 53 18.5 99.5t51 81t76.5 54t93 19.5t92.5 -19.5t75 -54t51 -80.5t19.5 -100q0 -53 -19.5 -98t-51 -80t-74.5 -54.5t-93 -19.5q-49 0 -93 20.5t-76.5 54.5t-51 80t-18.5 97z" />
<glyph unicode="&#x2026;" horiz-adv-x="1290" d="M35 219q0 45 13 86t37 71t54.5 47t67.5 17t67.5 -17t54 -47t37 -71t13.5 -86q0 -47 -13.5 -87t-37 -69.5t-54 -47t-67.5 -17.5t-67.5 17.5t-54.5 47t-37 69.5t-13 87zM465 219q0 45 13.5 86t37 71t54 47t67.5 17t67.5 -17t54 -47t37 -71t13.5 -86q0 -47 -13.5 -87 t-37 -69.5t-54 -47t-67.5 -17.5t-67.5 17.5t-54 47t-37 69.5t-13.5 87zM895 219q0 45 13.5 86t37 71t54 47t67.5 17t67.5 -17t54 -47t37 -71t13.5 -86q0 -47 -13.5 -87t-37 -69.5t-54 -47t-67.5 -17.5t-67.5 17.5t-54 47t-37 69.5t-13.5 87z" />
<glyph unicode="&#x202f;" horiz-adv-x="416" />
<glyph unicode="&#x2039;" horiz-adv-x="608" d="M39 610l381 379h100l-168 -379l168 -377h-100z" />
<glyph unicode="&#x203a;" horiz-adv-x="585" d="M39 233l168 379l-168 377h100l381 -377l-381 -379h-100z" />
<glyph unicode="&#x205f;" horiz-adv-x="520" />
<glyph unicode="&#x20ac;" horiz-adv-x="1441" d="M12 637l39 82h109q-2 20 -2 40.5v43.5q0 78 14 141l-156 2l39 82h135l17 53q37 119 99.5 213.5t140 159t165.5 99t176 34.5q176 0 252 -71q70 -68 158 -68q92 0 158 119h63l-186 -353h-51q-29 76 -63 133.5t-80 94.5t-110.5 55.5t-154.5 20.5q-100 0 -165.5 -43 t-105.5 -112t-56.5 -157t-18.5 -178h754l-39 -82h-713q4 -72 9 -125t14 -102h606l-39 -82h-553q59 -240 180 -369t285 -129q115 0 220 78t171 242l70 2q-39 -96 -99.5 -178t-137.5 -140.5t-165 -91.5t-182 -33q-113 0 -218.5 46.5t-191.5 129t-146 196.5t-83 247h-158z" />
<glyph unicode="&#x2122;" horiz-adv-x="1841" d="M29 1458l133 164l84 2q-4 -4 -4 -10q0 -10 8 -17.5t10 -7.5h367q2 0 8 6.5t6 16.5q0 8 -4 12l90 -2l133 -164l-74 -55q-51 55 -92 78h2q-35 23 -67 22h-86v-573q0 2 20.5 2h40.5v-84h-319v84h39.5t21.5 -2v573h-88q-33 0 -70 -22h2q-20 -10 -41.5 -30.5t-46.5 -47.5z M872 1509v80h312v-90q-20 4 -21 6q0 -6 6 -12l-2 2q25 -35 48.5 -67.5t46.5 -65.5q0 -6 10 -16l6 6q27 27 56.5 67.5t54.5 75.5l-3 -2q4 10 9 10h-15v86h310v-86h-44.5t-19.5 2v-563q6 -6 23.5 -8t40.5 -2v-84h-310v84q6 0 29 4t29 6l2 473q-41 -59 -77 -105t-71 -85v2 q-10 -14 -26.5 -35t-26.5 -33l-45 -2q-20 29 -38.5 62.5t-39.5 62.5q-23 29 -41 56.5t-39 56.5q-2 0 -2 2v-455q4 -4 19.5 -7t44.5 -3v-84h-224v84q27 0 38.5 3t21.5 7v494q0 29 1 42t-3 19t-17.5 7t-42.5 5zM936 1462h2h-2z" />
<glyph unicode="&#xe000;" horiz-adv-x="1024" d="M0 0v1024h1024v-1024h-1024z" />
</font>
</defs>
</svg>
